<svg width="26" height="26" viewBox="0 0 26 26" fill="none" xmlns="http://www.w3.org/2000/svg">
<rect width="26" height="26" rx="13" fill="#F2C56C" fill-opacity="0.2"/>
<path d="M14.8331 13.6249H10.3164C9.97474 13.6249 9.69141 13.3416 9.69141 12.9999V9.3916C9.69141 9.04993 9.97474 8.7666 10.3164 8.7666H14.8331C16.1247 8.7666 17.2664 9.89994 17.2664 11.1999C17.2664 12.5333 16.1747 13.6249 14.8331 13.6249ZM10.9414 12.3749H14.8331C15.4831 12.3749 16.0164 11.8416 16.0164 11.1916C16.0164 10.6416 15.4997 10.0083 14.8331 10.0083H10.9414V12.3749Z" fill="#F2C56C"/>
<path d="M15.4747 17.2333H10.3164C9.97474 17.2333 9.69141 16.95 9.69141 16.6083V13C9.69141 12.6583 9.97474 12.375 10.3164 12.375H15.4747C16.9581 12.375 18.1664 13.4667 18.1664 14.8083C18.1664 16.15 16.9581 17.2333 15.4747 17.2333ZM10.9414 15.9833H15.4747C16.2664 15.9833 16.9164 15.45 16.9164 14.8C16.9164 14.15 16.2747 13.6167 15.4747 13.6167H10.9414V15.9833Z" fill="#F2C56C"/>
<path d="M13.4746 19.0417C13.1329 19.0417 12.8496 18.7584 12.8496 18.4167V16.6084C12.8496 16.2667 13.1329 15.9834 13.4746 15.9834C13.8163 15.9834 14.0996 16.2667 14.0996 16.6084V18.4167C14.0996 18.7584 13.8246 19.0417 13.4746 19.0417Z" fill="#F2C56C"/>
<path d="M11.2246 19.0417C10.8829 19.0417 10.5996 18.7584 10.5996 18.4167V16.6084C10.5996 16.2667 10.8829 15.9834 11.2246 15.9834C11.5663 15.9834 11.8496 16.2667 11.8496 16.6084V18.4167C11.8496 18.7584 11.5663 19.0417 11.2246 19.0417Z" fill="#F2C56C"/>
<path d="M13.4746 10.0168C13.1329 10.0168 12.8496 9.7335 12.8496 9.39183V7.5835C12.8496 7.24183 13.1329 6.9585 13.4746 6.9585C13.8163 6.9585 14.0996 7.24183 14.0996 7.5835V9.39183C14.0996 9.7335 13.8246 10.0168 13.4746 10.0168Z" fill="#F2C56C"/>
<path d="M11.2246 10.0168C10.8829 10.0168 10.5996 9.7335 10.5996 9.39183V7.5835C10.5996 7.24183 10.8829 6.9585 11.2246 6.9585C11.5663 6.9585 11.8496 7.24183 11.8496 7.5835V9.39183C11.8496 9.7335 11.5663 10.0168 11.2246 10.0168Z" fill="#F2C56C"/>
<path d="M12.0333 10.0166H8.875C8.53333 10.0166 8.25 9.73327 8.25 9.3916C8.25 9.04993 8.53333 8.7666 8.875 8.7666H12.0333C12.375 8.7666 12.6583 9.04993 12.6583 9.3916C12.6583 9.73327 12.3833 10.0166 12.0333 10.0166Z" fill="#F2C56C"/>
<path d="M12.0333 17.2334H8.875C8.53333 17.2334 8.25 16.9501 8.25 16.6084C8.25 16.2667 8.53333 15.9834 8.875 15.9834H12.0333C12.375 15.9834 12.6583 16.2667 12.6583 16.6084C12.6583 16.9501 12.3833 17.2334 12.0333 17.2334Z" fill="#F2C56C"/>
</svg>
