<svg width="32" height="32" viewBox="0 0 32 32" fill="none" xmlns="http://www.w3.org/2000/svg">
<g id="Iconly/Bulk/Camera">
<g id="Camera">
<path id="Combined Shape" fill-rule="evenodd" clip-rule="evenodd" d="M22.28 13.4288C22.28 14.0947 22.8133 14.6275 23.48 14.6275C24.1467 14.6275 24.6933 14.0947 24.6933 13.4288C24.6933 12.7629 24.1467 12.2168 23.48 12.2168C22.8133 12.2168 22.28 12.7629 22.28 13.4288ZM19.6933 21.4732C18.7467 22.4188 17.44 23.0048 16 23.0048C14.6 23.0048 13.2933 22.4588 12.2933 21.4732C11.3067 20.4743 10.76 19.1691 10.76 17.7706C10.7467 16.3855 11.2933 15.0803 12.28 14.0814C13.28 13.0825 14.6 12.5364 16 12.5364C17.4 12.5364 18.72 13.0825 19.7067 14.0681C20.6933 15.067 21.24 16.3855 21.24 17.7706C21.2267 19.2223 20.64 20.5276 19.6933 21.4732ZM16 14.5342C15.1333 14.5342 14.32 14.8672 13.6933 15.4932C13.08 16.1058 12.7467 16.9182 12.76 17.7573V17.7706C12.76 18.6363 13.0933 19.4488 13.7067 20.0614C14.32 20.6741 15.1333 21.007 16 21.007C17.7867 21.007 19.2267 19.5553 19.24 17.7706C19.24 16.9049 18.9067 16.0925 18.2933 15.4798C17.68 14.8672 16.8667 14.5342 16 14.5342Z" fill="#177DFF"/>
<path id="Path" opacity="0.4" d="M23.2534 8.31521L23.12 8.0222C22.76 7.26304 22.3467 6.38402 22.0934 5.87791C21.48 4.67925 20.4267 4.01332 19.1334 4H12.8534C11.56 4.01332 10.52 4.67925 9.90669 5.87791C9.64002 6.41066 9.18669 7.36959 8.81335 8.15538L8.73335 8.31521C8.69335 8.42175 8.58669 8.47503 8.48002 8.47503C5.26669 8.47503 2.66669 11.0855 2.66669 14.2819V22.1931C2.66669 25.3896 5.26669 28 8.48002 28H23.52C26.72 28 29.3334 25.3896 29.3334 22.1931V14.2819C29.3334 11.0855 26.72 8.47503 23.52 8.47503C23.4 8.47503 23.3067 8.40844 23.2534 8.31521Z" fill="#177DFF"/>
</g>
</g>
</svg>
