<svg width="95" height="95" viewBox="0 0 95 95" fill="none" xmlns="http://www.w3.org/2000/svg">
<rect width="95" height="95" rx="47.5" fill="#39A798"/>
<path d="M70.3667 32.0334C70.0568 31.7209 69.6882 31.4729 69.282 31.3037C68.8758 31.1345 68.4401 31.0474 68 31.0474C67.56 31.0474 67.1243 31.1345 66.7181 31.3037C66.3119 31.4729 65.9432 31.7209 65.6334 32.0334L40.8 56.9L30.3667 46.4334C30.045 46.1226 29.6652 45.8782 29.249 45.7142C28.8328 45.5502 28.3884 45.4697 27.9411 45.4775C27.4938 45.4852 27.0525 45.581 26.6422 45.7593C26.232 45.9376 25.8608 46.195 25.55 46.5167C25.2392 46.8384 24.9949 47.2182 24.8308 47.6344C24.6668 48.0506 24.5864 48.495 24.5941 48.9423C24.6019 49.3895 24.6976 49.8309 24.8759 50.2412C25.0543 50.6514 25.3116 51.0226 25.6334 51.3334L38.4334 64.1334C38.7432 64.4458 39.1119 64.6938 39.5181 64.863C39.9243 65.0322 40.36 65.1193 40.8 65.1193C41.2401 65.1193 41.6758 65.0322 42.082 64.863C42.4882 64.6938 42.8568 64.4458 43.1667 64.1334L70.3667 36.9334C70.7051 36.6212 70.9751 36.2424 71.1598 35.8207C71.3445 35.399 71.4398 34.9437 71.4398 34.4834C71.4398 34.023 71.3445 33.5677 71.1598 33.146C70.9751 32.7243 70.7051 32.3455 70.3667 32.0334Z" fill="white"/>
</svg>
