<svg width="21" height="20" viewBox="0 0 21 20" fill="none" xmlns="http://www.w3.org/2000/svg">
<path d="M0.499999 5.81L0.5 14.19C0.5 17.83 2.67 20 6.31 20L14.68 20C18.33 20 20.5 17.83 20.5 14.19L20.5 5.82C20.5 2.18 18.33 0.00999945 14.69 0.00999961L6.31 0.00999997C2.67 -9.48537e-08 0.499999 2.17 0.499999 5.81ZM12.55 4.31C12.64 4.35 12.72 4.4 12.79 4.47L15.74 7.42C15.89 7.57 15.96 7.76 15.96 7.95C15.96 8.14 15.89 8.33 15.74 8.48C15.45 8.77 14.97 8.77 14.68 8.48L13.01 6.81L13.01 15C13.01 15.41 12.67 15.75 12.26 15.75C11.85 15.75 11.51 15.41 11.51 15L11.51 5C11.51 4.9 11.53 4.81 11.57 4.71C11.65 4.53 11.79 4.38 11.98 4.3C12.16 4.23 12.36 4.23 12.55 4.31ZM9.49 5L9.49 15C9.49 15.1 9.47 15.19 9.43 15.29C9.35 15.47 9.21 15.62 9.02 15.7C8.84 15.78 8.63 15.78 8.45 15.7C8.36 15.65 8.28 15.6 8.21 15.53L5.26 12.58C4.97 12.29 4.97 11.81 5.26 11.52C5.55 11.23 6.03 11.23 6.32 11.52L7.99 13.19L7.99 5C7.99 4.59 8.33 4.25 8.74 4.25C9.15 4.25 9.49 4.59 9.49 5Z" fill="#177DFF"/>
</svg>
