<svg width="26" height="26" viewBox="0 0 26 26" fill="none" xmlns="http://www.w3.org/2000/svg">
<path opacity="0.2" d="M25.9295 13.0003C25.9295 20.1422 20.14 25.9319 12.9981 25.9319C5.85621 25.9319 0.0666199 20.1422 0.0666199 13.0003C0.0666199 5.85844 5.85621 0.0688477 12.9981 0.0688477C20.1399 0.0688477 25.9295 5.85844 25.9295 13.0003Z" fill="#00A478"/>
<path d="M11.672 12.7739V10.5116H8.60364V8.52856H17.1779V10.5395H14.1095V12.7739H11.672Z" fill="#00A478"/>
<path fill-rule="evenodd" clip-rule="evenodd" d="M7.28455 13.0253C7.28455 12.2712 9.75072 11.6567 12.8191 11.6567C15.8875 11.6567 18.3537 12.2712 18.3537 13.0253C18.3537 13.7794 15.8875 14.3938 12.8191 14.3938C9.75072 14.3938 7.28455 13.7794 7.28455 13.0253ZM17.8948 13.0253C17.6941 12.746 16.0309 11.8802 12.8191 11.8802C9.60734 11.8802 7.9441 12.7181 7.74337 13.0253C7.9441 13.3046 9.60734 13.7235 12.8191 13.7235C16.0595 13.7235 17.6941 13.3046 17.8948 13.0253Z" fill="#00A478"/>
<path d="M14.1096 13.4722V11.9082C13.7081 11.8802 13.278 11.8523 12.8478 11.8523C12.4463 11.8523 12.0735 11.8523 11.7007 11.8802V13.4443C12.0449 13.4443 12.4463 13.4722 12.8478 13.4722C13.278 13.5001 13.7081 13.5001 14.1096 13.4722Z" fill="#00A478"/>
<path d="M12.8191 14.394C12.4176 14.394 12.0449 14.394 11.6721 14.3661V18.5276H14.0809V14.3381C13.6794 14.3661 13.2493 14.394 12.8191 14.394Z" fill="#00A478"/>
</svg>
