<svg width="28" height="28" viewBox="0 0 28 28" fill="none" xmlns="http://www.w3.org/2000/svg">
<path d="M12.7633 26.4252C12.2033 26.4252 11.655 26.2852 11.1417 26.0052C10.115 25.4335 9.49668 24.3952 9.49668 23.2285V17.0452C9.49668 16.4619 9.11167 15.5869 8.75001 15.1435L4.38667 10.5235C3.65167 9.78853 3.09167 8.52853 3.09167 7.58353V4.9002C3.09167 3.03353 4.50334 1.5752 6.30001 1.5752H21.7C23.4733 1.5752 24.9083 3.0102 24.9083 4.78353V7.3502C24.9083 8.5752 24.1733 9.96353 23.485 10.6519L18.4333 15.1202C17.9433 15.5285 17.5583 16.4269 17.5583 17.1502V22.1669C17.5583 23.2052 16.905 24.4069 16.0883 24.8969L14.4783 25.9352C13.9533 26.2619 13.3583 26.4252 12.7633 26.4252ZM6.30001 3.3252C5.48334 3.3252 4.84167 4.01353 4.84167 4.9002V7.58353C4.84167 8.0152 5.19167 8.8552 5.63501 9.29853L10.08 13.9769C10.675 14.7119 11.2583 15.9369 11.2583 17.0335V23.2169C11.2583 23.9752 11.7833 24.3485 12.005 24.4652C12.495 24.7335 13.09 24.7335 13.545 24.4535L15.1667 23.4152C15.4933 23.2169 15.82 22.5869 15.82 22.1669V17.1502C15.82 15.9019 16.4267 14.5252 17.3017 13.7902L22.295 9.36853C22.6917 8.97186 23.17 8.02686 23.17 7.33853V4.78353C23.17 3.97853 22.5167 3.3252 21.7117 3.3252H6.30001Z" fill="#292D32"/>
<path d="M7 12.5421C6.83667 12.5421 6.685 12.4955 6.53333 12.4138C6.125 12.1571 5.99667 11.6088 6.25333 11.2005L12.005 1.9838C12.2617 1.57547 12.7983 1.44714 13.2067 1.7038C13.615 1.96047 13.7433 2.49714 13.4867 2.90547L7.735 12.1221C7.57167 12.3905 7.29167 12.5421 7 12.5421Z" fill="#292D32"/>
</svg>
