<svg width="49" height="48" viewBox="0 0 49 48" fill="none" xmlns="http://www.w3.org/2000/svg">
<path d="M24.5002 31.26C21.8602 31.26 19.7002 29.1 19.7002 26.46V21.52C19.7002 18.88 21.8602 16.72 24.5002 16.72C27.1402 16.72 29.3002 18.88 29.3002 21.52V26.46C29.3002 29.12 27.1402 31.26 24.5002 31.26ZM24.5002 19.74C23.5202 19.74 22.7002 20.54 22.7002 21.54V26.48C22.7002 27.48 23.5002 28.28 24.5002 28.28C25.5002 28.28 26.3002 27.48 26.3002 26.48V21.54C26.3002 20.54 25.4802 19.74 24.5002 19.74Z" fill="#BAC2CC"/>
<path d="M24.5 37.64C18.16 37.64 13 32.48 13 26.14V21.86C13 15.52 18.16 10.36 24.5 10.36C30.42 10.36 35.34 14.8001 35.94 20.6801C36.02 21.5001 35.42 22.2399 34.6 22.3199C33.78 22.4199 33.04 21.8 32.96 20.98C32.52 16.64 28.88 13.36 24.5 13.36C19.82 13.36 16 17.18 16 21.86V26.14C16 30.82 19.82 34.64 24.5 34.64C28.9 34.64 32.62 31.1999 32.98 26.8199C33.04 25.9999 33.76 25.3799 34.6 25.4399C35.42 25.4999 36.04 26.2201 35.98 27.0601C35.5 33.0001 30.46 37.64 24.5 37.64Z" fill="#BAC2CC"/>
<path d="M44.5 19.5C43.68 19.5 43 18.82 43 18V14C43 8.84 39.66 5.5 34.5 5.5H30.5C29.68 5.5 29 4.82 29 4C29 3.18 29.68 2.5 30.5 2.5H34.5C41.38 2.5 46 7.12 46 14V18C46 18.82 45.32 19.5 44.5 19.5Z" fill="#BAC2CC"/>
<path d="M4.5 19.5C3.68 19.5 3 18.82 3 18V14C3 7.12 7.62 2.5 14.5 2.5H18.5C19.32 2.5 20 3.18 20 4C20 4.82 19.32 5.5 18.5 5.5H14.5C9.34 5.5 6 8.84 6 14V18C6 18.82 5.32 19.5 4.5 19.5Z" fill="#BAC2CC"/>
<path d="M34.5 45.5H30.5C29.68 45.5 29 44.82 29 44C29 43.18 29.68 42.5 30.5 42.5H34.5C39.66 42.5 43 39.16 43 34V30C43 29.18 43.68 28.5 44.5 28.5C45.32 28.5 46 29.18 46 30V34C46 40.88 41.38 45.5 34.5 45.5Z" fill="#BAC2CC"/>
<path d="M18.5 45.5H14.5C7.62 45.5 3 40.88 3 34V30C3 29.18 3.68 28.5 4.5 28.5C5.32 28.5 6 29.18 6 30V34C6 39.16 9.34 42.5 14.5 42.5H18.5C19.32 42.5 20 43.18 20 44C20 44.82 19.32 45.5 18.5 45.5Z" fill="#BAC2CC"/>
</svg>
