<svg width="57" height="57" viewBox="0 0 57 57" fill="none" xmlns="http://www.w3.org/2000/svg">
<path d="M28.4998 37.1213C25.3648 37.1213 22.7998 34.5562 22.7998 31.4212V25.555C22.7998 22.42 25.3648 19.855 28.4998 19.855C31.6348 19.855 34.1998 22.42 34.1998 25.555V31.4212C34.1998 34.58 31.6348 37.1213 28.4998 37.1213ZM28.4998 23.4412C27.3361 23.4412 26.3623 24.3913 26.3623 25.5788V31.445C26.3623 32.6325 27.3123 33.5825 28.4998 33.5825C29.6873 33.5825 30.6373 32.6325 30.6373 31.445V25.5788C30.6373 24.3913 29.6636 23.4412 28.4998 23.4412Z" fill="#177DFF"/>
<path d="M28.5 44.6975C20.9712 44.6975 14.8438 38.57 14.8438 31.0413V25.9587C14.8438 18.43 20.9712 12.3025 28.5 12.3025C35.53 12.3025 41.3725 17.5751 42.085 24.5576C42.18 25.5313 41.4675 26.4099 40.4938 26.5049C39.52 26.6237 38.6413 25.8875 38.5463 24.9137C38.0238 19.76 33.7013 15.865 28.5 15.865C22.9425 15.865 18.4062 20.4012 18.4062 25.9587V31.0413C18.4062 36.5988 22.9425 41.135 28.5 41.135C33.725 41.135 38.1425 37.0499 38.57 31.8487C38.6412 30.8749 39.4963 30.1387 40.4938 30.2099C41.4675 30.2812 42.2037 31.1363 42.1325 32.1338C41.5625 39.1876 35.5775 44.6975 28.5 44.6975Z" fill="#177DFF"/>
<path d="M52.25 23.1562C51.2763 23.1562 50.4688 22.3487 50.4688 21.375V16.625C50.4688 10.4975 46.5025 6.53125 40.375 6.53125H35.625C34.6513 6.53125 33.8438 5.72375 33.8438 4.75C33.8438 3.77625 34.6513 2.96875 35.625 2.96875H40.375C48.545 2.96875 54.0312 8.455 54.0312 16.625V21.375C54.0312 22.3487 53.2237 23.1562 52.25 23.1562Z" fill="#177DFF"/>
<path d="M4.75 23.1562C3.77625 23.1562 2.96875 22.3487 2.96875 21.375V16.625C2.96875 8.455 8.455 2.96875 16.625 2.96875H21.375C22.3487 2.96875 23.1562 3.77625 23.1562 4.75C23.1562 5.72375 22.3487 6.53125 21.375 6.53125H16.625C10.4975 6.53125 6.53125 10.4975 6.53125 16.625V21.375C6.53125 22.3487 5.72375 23.1562 4.75 23.1562Z" fill="#177DFF"/>
<path d="M40.375 54.0312H35.625C34.6513 54.0312 33.8438 53.2237 33.8438 52.25C33.8438 51.2763 34.6513 50.4688 35.625 50.4688H40.375C46.5025 50.4688 50.4688 46.5025 50.4688 40.375V35.625C50.4688 34.6513 51.2763 33.8438 52.25 33.8438C53.2237 33.8438 54.0312 34.6513 54.0312 35.625V40.375C54.0312 48.545 48.545 54.0312 40.375 54.0312Z" fill="#177DFF"/>
<path d="M21.375 54.0312H16.625C8.455 54.0312 2.96875 48.545 2.96875 40.375V35.625C2.96875 34.6513 3.77625 33.8438 4.75 33.8438C5.72375 33.8438 6.53125 34.6513 6.53125 35.625V40.375C6.53125 46.5025 10.4975 50.4688 16.625 50.4688H21.375C22.3487 50.4688 23.1562 51.2763 23.1562 52.25C23.1562 53.2237 22.3487 54.0312 21.375 54.0312Z" fill="#177DFF"/>
</svg>
