<svg width="234" height="60" viewBox="0 0 234 60" fill="none" xmlns="http://www.w3.org/2000/svg">
<g clip-path="url(#clip0_103_9235)">
<path d="M83.5402 47.1818L86.4925 46.4727C87.2943 46.3274 87.8957 46.2 88.2968 46.0909V12.8182H79.7131C79.6401 13.7273 79.3487 15.1636 78.8383 17.1273C78.3646 19.0909 77.9453 20.3636 77.5809 20.9455H75.722V10.0909H109.455V20.9455H107.596C107.232 20.3636 106.795 19.0909 106.284 17.1273C105.81 15.1636 105.537 13.7273 105.464 12.8182H96.8804V46.1455C98.3019 46.3999 99.9057 46.7817 101.692 47.2909V48.2727H83.5402V47.1818ZM110.04 47.2364C111.243 46.7637 112.682 46.3999 114.359 46.1455V23.3455C113.12 23.1273 111.88 22.7818 110.641 22.3091V21.7636L121.74 20.5091L122.451 25.6909H122.669C123.362 24.0545 124.364 22.8 125.676 21.9273C127.025 21.0545 128.465 20.6182 129.995 20.6182C131.162 20.6182 132.201 20.7273 133.112 20.9455C134.023 21.1273 134.898 21.4909 135.736 22.0364L134.205 25.9636C133.148 25.2364 132.037 24.8727 130.87 24.8727C129.194 24.8727 127.626 25.4182 126.168 26.5091C124.747 27.5637 123.58 28.9636 122.669 30.7091V46.2C123.981 46.4182 125.403 46.8 126.934 47.3455V48.2727H110.04V47.2364ZM164.652 35.2364H144.04C144.113 38.4 144.879 41.0365 146.337 43.1455C147.831 45.2545 150.036 46.3091 152.952 46.3091C154.447 46.3091 156.087 46.0546 157.873 45.5455C159.659 45 161.19 44.2546 162.465 43.3091L163.285 45.2182C162.046 46.2363 160.333 47.091 158.146 47.7818C155.996 48.4726 153.663 48.8182 151.148 48.8182C147.941 48.8182 145.171 48.2365 142.838 47.0727C140.505 45.909 138.719 44.2726 137.48 42.1636C136.241 40.0181 135.621 37.5455 135.621 34.7455C135.621 30.2365 136.97 26.7636 139.667 24.3273C142.364 21.8545 146.136 20.6182 150.984 20.6182C154.009 20.6182 156.542 21.2182 158.583 22.4182C160.661 23.5818 162.192 25.1455 163.176 27.1091C164.16 29.0727 164.652 31.2545 164.652 33.6545V35.2364ZM157.381 32.5636C157.381 31.2183 157.162 29.8364 156.725 28.4182C156.324 26.9636 155.649 25.7455 154.702 24.7636C153.754 23.7818 152.515 23.2909 150.984 23.2909C148.979 23.2909 147.394 24.1636 146.227 25.9091C145.098 27.6545 144.405 29.8726 144.15 32.5636H157.381ZM197.988 21.1091V21.9818C196.494 22.5636 195.236 22.9636 194.216 23.1818L183.117 51.3273C182.06 54.0183 180.875 55.9274 179.563 57.0545C178.251 58.2183 176.392 58.8 173.987 58.8C171.982 58.8 169.905 58.2908 167.754 57.2727L169.121 53.6182C171.235 54.4181 172.893 54.8182 174.096 54.8182C174.898 54.8182 175.572 54.6908 176.119 54.4364C176.702 54.1819 177.249 53.6727 177.759 52.9091C178.306 52.1455 178.871 51 179.454 49.4727L180.001 48.1091L168.246 23.0727C166.861 22.8545 165.676 22.5091 164.692 22.0364V21.1091H180.547V22.0909C179.709 22.4182 178.215 22.7455 176.064 23.0727L183.226 39.8727L189.951 22.9091C188.566 22.6909 187.382 22.4182 186.397 22.0909V21.1091H197.988ZM212.538 48.8182C208.528 48.8182 205.43 47.7273 203.243 45.5455C201.093 43.3636 200.018 40.0181 200.018 35.5091C200.018 31.0364 201.202 27.4364 203.571 24.7091C205.94 21.9818 209.33 20.6182 213.74 20.6182C215.271 20.6182 216.656 20.8364 217.896 21.2727C219.135 21.6727 220.247 22.3636 221.231 23.3455V12.7091C219.809 12.3818 218.588 12.0364 217.568 11.6727V11.0182L229.596 9.87273V45.7636C231.199 46.1272 232.439 46.4544 233.313 46.7454V47.2909L222.925 48.7636C222.743 47.2726 222.597 45.6363 222.488 43.8545C220.447 47.1635 217.13 48.8182 212.538 48.8182ZM214.998 46.1455C216.711 46.1455 218.169 45.5092 219.372 44.2364C220.611 42.9273 221.231 41.1635 221.231 38.9455V26.4545C220.356 25.4364 219.39 24.6545 218.333 24.1091C217.276 23.5636 216.201 23.2909 215.107 23.2909C212.629 23.2909 210.879 24.5636 209.859 27.1091C208.875 29.6182 208.382 32.4363 208.382 35.5636C208.382 42.6183 210.587 46.1455 214.998 46.1455Z" fill="white"/>
<path d="M0.161743 42.9739L21.4842 48.1557" stroke="#D1E5FF" stroke-width="2"/>
<path d="M42.015 28.5919L20.6925 48.2283" stroke="#D1E5FF" stroke-width="2"/>
<path d="M41.0472 28.9942L58.8159 9.63052" stroke="#D1E5FF" stroke-width="2"/>
<path d="M20.2289 50.4545C21.7386 50.4545 22.9625 49.2335 22.9625 47.7273C22.9625 46.221 21.7386 45 20.2289 45C18.7191 45 17.4952 46.221 17.4952 47.7273C17.4952 49.2335 18.7191 50.4545 20.2289 50.4545Z" fill="#D1E5FF"/>
<path d="M41.5514 30.8182C43.0612 30.8182 44.285 29.5972 44.285 28.0909C44.285 26.5847 43.0612 25.3636 41.5514 25.3636C40.0416 25.3636 38.8177 26.5847 38.8177 28.0909C38.8177 29.5972 40.0416 30.8182 41.5514 30.8182Z" fill="#D1E5FF"/>
<path d="M59.5934 11.7273C61.1032 11.7273 62.3271 10.5062 62.3271 9C62.3271 7.49378 61.1032 6.27273 59.5934 6.27273C58.0837 6.27273 56.8598 7.49378 56.8598 9C56.8598 10.5062 58.0837 11.7273 59.5934 11.7273Z" fill="#D1E5FF"/>
<path d="M0.610229 53.5178L18.9256 35.2451" stroke="white" stroke-width="2"/>
<path d="M42.5374 39.1279L18.4814 35.3097" stroke="white" stroke-width="2"/>
<path d="M42.1407 39.3578L59.9094 19.9942" stroke="white" stroke-width="2"/>
<path d="M18.5887 38.4545C20.0985 38.4545 21.3224 37.2335 21.3224 35.7273C21.3224 34.221 20.0985 33 18.5887 33C17.079 33 15.8551 34.221 15.8551 35.7273C15.8551 37.2335 17.079 38.4545 18.5887 38.4545Z" fill="white"/>
<path d="M42.6448 41.1818C44.1546 41.1818 45.3784 39.9608 45.3784 38.4545C45.3784 36.9483 44.1546 35.7273 42.6448 35.7273C41.135 35.7273 39.9111 36.9483 39.9111 38.4545C39.9111 39.9608 41.135 41.1818 42.6448 41.1818Z" fill="white"/>
<path d="M60.6869 22.0909C62.1967 22.0909 63.4205 20.8699 63.4205 19.3636C63.4205 17.8574 62.1967 16.6364 60.6869 16.6364C59.1771 16.6364 57.9532 17.8574 57.9532 19.3636C57.9532 20.8699 59.1771 22.0909 60.6869 22.0909Z" fill="white"/>
</g>
<defs>
<clipPath id="clip0_103_9235">
<rect width="234" height="60" fill="white"/>
</clipPath>
</defs>
</svg>
