<svg width="133" height="35" viewBox="0 0 133 35" fill="none" xmlns="http://www.w3.org/2000/svg">
<g clip-path="url(#clip0_279_13625)">
<path d="M47.4822 26.817L49.1603 26.414C49.616 26.3314 49.9578 26.259 50.1857 26.197V7.28555H45.307C45.2655 7.80225 45.0999 8.61865 44.8098 9.73473C44.5405 10.8508 44.3022 11.5742 44.0951 11.9049H43.0386V5.73543H62.2117V11.9049H61.1551C60.948 11.5742 60.6994 10.8508 60.4093 9.73473C60.1401 8.61865 59.9847 7.80225 59.9432 7.28555H55.0645V26.228C55.8724 26.3726 56.784 26.5896 57.7991 26.879V27.4371H47.4822V26.817ZM62.544 26.848C63.2277 26.5794 64.046 26.3726 64.9989 26.228V13.269C64.2946 13.145 63.5902 12.9486 62.8859 12.68V12.3699L69.194 11.6569L69.598 14.6021H69.7223C70.1159 13.672 70.6856 12.959 71.4314 12.4629C72.1979 11.9669 73.0162 11.7189 73.8863 11.7189C74.5493 11.7189 75.1397 11.7809 75.6576 11.9049C76.1754 12.0082 76.6726 12.2149 77.1492 12.5249L76.2791 14.7571C75.6782 14.3437 75.0465 14.1371 74.3835 14.1371C73.4306 14.1371 72.5397 14.4471 71.7111 15.0671C70.9031 15.6666 70.2402 16.4622 69.7223 17.4543V26.259C70.4681 26.383 71.276 26.6 72.1461 26.91V27.4371H62.544V26.848ZM93.5843 20.0275H81.8691C81.9106 21.8256 82.3456 23.3241 83.1743 24.5228C84.0237 25.7215 85.2771 26.321 86.9343 26.321C87.7837 26.321 88.716 26.1763 89.731 25.8869C90.7462 25.5769 91.6163 25.1533 92.3413 24.6158L92.8074 25.7009C92.1031 26.2796 91.1294 26.7654 89.8864 27.158C88.6642 27.5507 87.3383 27.7471 85.9088 27.7471C84.0858 27.7471 82.5114 27.4164 81.1855 26.755C79.8597 26.0936 78.8446 25.1635 78.1401 23.9648C77.4358 22.7453 77.0836 21.34 77.0836 19.7485C77.0836 17.1857 77.8502 15.2118 79.3831 13.827C80.9162 12.4216 83.0604 11.7189 85.8156 11.7189C87.5351 11.7189 88.975 12.0599 90.135 12.742C91.3158 13.4033 92.1859 14.2921 92.7453 15.4082C93.3046 16.5242 93.5843 17.7643 93.5843 19.1284V20.0275ZM89.4514 18.5084C89.4514 17.7437 89.3271 16.9583 89.0785 16.1522C88.8507 15.3255 88.4674 14.6331 87.9287 14.0751C87.3902 13.517 86.6857 13.238 85.8156 13.238C84.6763 13.238 83.7751 13.734 83.1121 14.7261C82.4699 15.7182 82.0764 16.9789 81.9313 18.5084H89.4514ZM112.532 11.9979V12.4939C111.682 12.8246 110.968 13.052 110.388 13.176L104.079 29.1732C103.479 30.7027 102.805 31.7878 102.059 32.4284C101.314 33.0899 100.257 33.4205 98.8898 33.4205C97.7505 33.4205 96.5697 33.1311 95.3473 32.5524L96.1242 30.4753C97.3257 30.9299 98.2684 31.1573 98.952 31.1573C99.4077 31.1573 99.791 31.0849 100.102 30.9403C100.433 30.7957 100.744 30.5063 101.034 30.0723C101.345 29.6382 101.666 28.9872 101.997 28.1191L102.308 27.3441L95.627 13.114C94.8397 12.99 94.1665 12.7936 93.6071 12.5249V11.9979H102.619V12.5559C102.142 12.742 101.293 12.928 100.071 13.114L104.141 22.6627L107.964 13.021C107.176 12.897 106.503 12.742 105.944 12.5559V11.9979H112.532ZM120.801 27.7471C118.522 27.7471 116.762 27.127 115.519 25.8869C114.296 24.6469 113.685 22.7453 113.685 20.1825C113.685 17.6403 114.358 15.5942 115.705 14.0441C117.051 12.4939 118.978 11.7189 121.485 11.7189C122.355 11.7189 123.142 11.8429 123.847 12.0909C124.551 12.3183 125.183 12.711 125.742 13.269V7.22354C124.934 7.03753 124.24 6.84117 123.66 6.6345V6.26247L130.497 5.61142V26.011C131.408 26.2176 132.113 26.4036 132.61 26.569V26.879L126.705 27.7161C126.602 26.8686 126.519 25.9386 126.457 24.9259C125.297 26.8066 123.412 27.7471 120.801 27.7471ZM122.2 26.228C123.173 26.228 124.002 25.8663 124.686 25.1429C125.39 24.3988 125.742 23.3964 125.742 22.1357V15.0361C125.245 14.4574 124.696 14.0131 124.095 13.703C123.494 13.393 122.883 13.238 122.262 13.238C120.853 13.238 119.859 13.9614 119.279 15.4082C118.719 16.8343 118.44 18.436 118.44 20.2135C118.44 24.2232 119.693 26.228 122.2 26.228Z" fill="#177DFF"/>
<path d="M0.0919495 24.4254L12.2111 27.3706" stroke="#D1E5FF" stroke-width="1.13675"/>
<path d="M23.8803 16.251L11.7611 27.4118" stroke="#D1E5FF" stroke-width="1.13675"/>
<path d="M23.3303 16.4796L33.4296 5.47375" stroke="#D1E5FF" stroke-width="1.13675"/>
<path d="M11.4977 28.6772C12.3558 28.6772 13.0514 27.9832 13.0514 27.1271C13.0514 26.2709 12.3558 25.5769 11.4977 25.5769C10.6396 25.5769 9.94392 26.2709 9.94392 27.1271C9.94392 27.9832 10.6396 28.6772 11.4977 28.6772Z" fill="#D1E5FF"/>
<path d="M23.6168 17.5163C24.475 17.5163 25.1706 16.8224 25.1706 15.9662C25.1706 15.1101 24.475 14.4161 23.6168 14.4161C22.7587 14.4161 22.0631 15.1101 22.0631 15.9662C22.0631 16.8224 22.7587 17.5163 23.6168 17.5163Z" fill="#D1E5FF"/>
<path d="M33.8715 6.66551C34.7296 6.66551 35.4252 5.97149 35.4252 5.11539C35.4252 4.2593 34.7296 3.56528 33.8715 3.56528C33.0134 3.56528 32.3178 4.2593 32.3178 5.11539C32.3178 5.97149 33.0134 6.66551 33.8715 6.66551Z" fill="#D1E5FF"/>
<path d="M0.346855 30.4183L10.7569 20.0325" stroke="#177DFF" stroke-width="1.13675"/>
<path d="M24.1773 22.2394L10.5044 20.0692" stroke="#177DFF" stroke-width="1.13675"/>
<path d="M23.9518 22.37L34.0511 11.3642" stroke="#177DFF" stroke-width="1.13675"/>
<path d="M10.5654 21.8566C11.4235 21.8566 12.1192 21.1627 12.1192 20.3065C12.1192 19.4504 11.4235 18.7564 10.5654 18.7564C9.70732 18.7564 9.01168 19.4504 9.01168 20.3065C9.01168 21.1627 9.70732 21.8566 10.5654 21.8566Z" fill="#177DFF"/>
<path d="M24.2383 23.4068C25.0964 23.4068 25.7921 22.7128 25.7921 21.8567C25.7921 21.0005 25.0964 20.3065 24.2383 20.3065C23.3802 20.3065 22.6846 21.0005 22.6846 21.8567C22.6846 22.7128 23.3802 23.4068 24.2383 23.4068Z" fill="#177DFF"/>
<path d="M34.493 12.556C35.3511 12.556 36.0467 11.8619 36.0467 11.0058C36.0467 10.1497 35.3511 9.45572 34.493 9.45572C33.6349 9.45572 32.9393 10.1497 32.9393 11.0058C32.9393 11.8619 33.6349 12.556 34.493 12.556Z" fill="#177DFF"/>
</g>
<defs>
<clipPath id="clip0_279_13625">
<rect width="133" height="34.1026" fill="white"/>
</clipPath>
</defs>
</svg>
