<svg width="31" height="12" viewBox="0 0 31 12" fill="none" xmlns="http://www.w3.org/2000/svg">
<path d="M5.92969 11.5L2.09375 1.39062H2.03125C2.05208 1.60417 2.07031 1.86458 2.08594 2.17188C2.10156 2.47917 2.11458 2.8151 2.125 3.17969C2.13542 3.53906 2.14062 3.90625 2.14062 4.28125V11.5H0.90625V0.078125H2.875L6.49219 9.57812H6.54688L10.2188 0.078125H12.1719V11.5H10.8594V4.1875C10.8594 3.84896 10.8646 3.51042 10.875 3.17188C10.8854 2.82812 10.8984 2.50521 10.9141 2.20312C10.9297 1.89583 10.9453 1.63021 10.9609 1.40625H10.8984L7.01562 11.5H5.92969ZM18.3047 2.79688C19.3255 2.79688 20.0833 3.02604 20.5781 3.48438C21.0729 3.94271 21.3203 4.67448 21.3203 5.67969V11.5H20.375L20.125 10.2344H20.0625C19.8229 10.5469 19.5729 10.8099 19.3125 11.0234C19.0521 11.2318 18.75 11.3906 18.4062 11.5C18.0677 11.6042 17.651 11.6562 17.1562 11.6562C16.6354 11.6562 16.1719 11.5651 15.7656 11.3828C15.3646 11.2005 15.0469 10.9245 14.8125 10.5547C14.5833 10.1849 14.4688 9.71615 14.4688 9.14844C14.4688 8.29427 14.8073 7.63802 15.4844 7.17969C16.1615 6.72135 17.1927 6.47135 18.5781 6.42969L20.0547 6.36719V5.84375C20.0547 5.10417 19.8958 4.58594 19.5781 4.28906C19.2604 3.99219 18.8125 3.84375 18.2344 3.84375C17.7865 3.84375 17.3594 3.90885 16.9531 4.03906C16.5469 4.16927 16.1615 4.32292 15.7969 4.5L15.3984 3.51562C15.7839 3.31771 16.2266 3.14844 16.7266 3.00781C17.2266 2.86719 17.7526 2.79688 18.3047 2.79688ZM20.0391 7.28125L18.7344 7.33594C17.6667 7.3776 16.9141 7.55208 16.4766 7.85938C16.0391 8.16667 15.8203 8.60156 15.8203 9.16406C15.8203 9.65365 15.9688 10.0156 16.2656 10.25C16.5625 10.4844 16.9557 10.6016 17.4453 10.6016C18.2057 10.6016 18.8281 10.3906 19.3125 9.96875C19.7969 9.54688 20.0391 8.91406 20.0391 8.07031V7.28125ZM26.0312 7.11719L23.0703 2.9375H24.5547L26.8125 6.23438L29.0625 2.9375H30.5312L27.5703 7.11719L30.6953 11.5H29.2109L26.8125 8.00781L24.3984 11.5H22.9297L26.0312 7.11719Z" fill="#177DFF"/>
</svg>
