<svg width="83" height="84" viewBox="0 0 83 84" fill="none" xmlns="http://www.w3.org/2000/svg">
<rect width="83" height="84" rx="12" fill="#D1E5FF"/>
<path d="M66.946 72.4943C64.7003 66.3864 50.9647 63.4693 48.5597 61.6992C45.4719 59.4265 46.4542 51.8982 46.4542 51.8982L41.4017 52.0328L36.3488 51.8982C36.3488 51.8982 37.3315 59.4265 34.2436 61.6992C31.8386 63.4693 18.103 66.3864 15.8574 72.4943C13.6117 78.6022 12.7695 84 12.7695 84H41.1211H41.6823H70.0334C70.0334 84 69.1916 78.6022 66.946 72.4943Z" fill="#A1444B"/>
<path d="M35.4131 60.2964C37.7781 60.0518 40.1559 59.5664 42.2154 58.4006C43.7166 57.5509 45.0683 56.5476 46.3229 55.4181C46.2485 53.4837 46.4543 51.8982 46.4543 51.8982L41.4018 52.0328L36.349 51.8982C36.349 51.8982 37.0484 57.2562 35.4131 60.2964Z" fill="#7A3134"/>
<path d="M67.344 72.4098C65.1565 66.4602 52.1487 63.5163 49.1009 61.716C46.694 63.1325 43.7584 63.9677 40.5867 63.9677C37.8312 63.9677 35.2532 63.3374 33.0449 62.2435C28.7734 64.0835 17.8662 67.0075 15.88 72.4098C13.6178 78.5625 12.7695 84 12.7695 84H41.3295H41.8949H70.4545C70.4545 84 69.6063 78.5625 67.344 72.4098Z" fill="#177DFF"/>
<path d="M32.9176 40.162C32.1018 37.5996 30.1693 38.1928 29.9884 38.2548C29.7988 38.2769 27.8012 38.5774 28.1464 41.2464C28.4935 43.9319 30.0329 45.387 31.4764 44.9593C32.9622 44.7212 33.7386 42.7394 32.9176 40.162Z" fill="#7A3134"/>
<path d="M49.6322 40.162C50.4484 37.5996 52.3805 38.1928 52.5614 38.2548C52.751 38.2769 54.7485 38.5774 54.4037 41.2464C54.0563 43.9319 52.5169 45.387 51.0734 44.9593C49.588 44.7212 48.8112 42.7394 49.6322 40.162Z" fill="#7A3134"/>
<path d="M51.3174 36.1311C50.306 24.8987 41.8684 25.5279 41.0726 25.6123C40.2769 25.5279 31.8393 24.8987 30.8278 36.1311C29.8108 47.4308 34.7836 54.8104 41.0726 54.4045C47.3616 54.8104 52.3348 47.4308 51.3174 36.1311Z" fill="#A1444B"/>
<path d="M41.6328 45.6378C41.6623 45.5613 41.7019 45.496 41.7386 45.4276C41.7737 45.3576 41.8164 45.2953 41.8579 45.2323C41.9429 45.108 42.0361 44.9926 42.134 44.8817C42.2348 44.7743 42.3345 44.6658 42.4467 44.5699C42.5543 44.4697 42.6707 44.3787 42.7911 44.2924L42.7405 44.4399C42.6502 43.6965 42.5668 42.9519 42.4871 42.2066C42.4176 41.4597 42.3345 40.7151 42.2786 39.9664C42.4323 40.701 42.5585 41.4395 42.6982 42.1756C42.8285 42.9137 42.9543 43.6521 43.0736 44.3917L43.085 44.4605L43.023 44.5397C42.9309 44.657 42.8349 44.7698 42.7303 44.873C42.6299 44.9811 42.5173 45.0759 42.4059 45.1719C42.2915 45.2651 42.1721 45.353 42.0448 45.4322C41.9806 45.4708 41.9168 45.5105 41.8458 45.5422C41.7763 45.5759 41.7099 45.6122 41.6328 45.6378Z" fill="#7A3134"/>
<path d="M35.8232 40.1357C35.8232 40.9815 36.1337 41.6676 36.5163 41.6676C36.8992 41.6676 37.2093 40.9815 37.2093 40.1357C37.2093 39.2898 36.8992 38.6037 36.5163 38.6037C36.1337 38.6037 35.8232 39.2898 35.8232 40.1357Z" fill="#29202E"/>
<path d="M45.3457 40.1357C45.3457 40.9815 45.6562 41.6676 46.0387 41.6676C46.4217 41.6676 46.7318 40.9815 46.7318 40.1357C46.7318 39.2898 46.4217 38.6037 46.0387 38.6037C45.6562 38.6037 45.3457 39.2898 45.3457 40.1357Z" fill="#29202E"/>
<path d="M34.1221 37.6291C34.1221 37.6291 34.2425 37.2621 34.6172 36.8359C34.7158 36.7362 34.8143 36.6143 34.9446 36.5149C35.0685 36.4071 35.2098 36.3043 35.3688 36.2137C35.5198 36.1116 35.7045 36.0482 35.8835 35.9721C36.075 35.9251 36.2661 35.8559 36.4727 35.8513C36.5747 35.846 36.6766 35.8384 36.7782 35.8372C36.8798 35.8468 36.981 35.8624 37.0808 35.8762C37.2836 35.8896 37.4641 35.9836 37.6412 36.0451C37.8184 36.1113 37.9592 36.2309 38.1016 36.3188C38.2478 36.4044 38.3407 36.5401 38.4438 36.6383C38.5431 36.7408 38.6311 36.8356 38.6866 36.9395C38.7497 37.0358 38.7973 37.1249 38.8369 37.1964C38.9144 37.3405 38.9506 37.4253 38.9506 37.4253C38.9506 37.4253 38.8622 37.3848 38.7221 37.3095C38.653 37.2709 38.5684 37.2266 38.4797 37.17C38.3935 37.1092 38.2787 37.0691 38.167 37.0125C38.0495 36.9671 37.94 36.8856 37.8048 36.8532C37.6718 36.818 37.5453 36.7488 37.4044 36.7263C37.2628 36.7087 37.1268 36.6532 36.9799 36.6597C36.9078 36.6555 36.8356 36.6532 36.7631 36.6445L36.5437 36.6624C36.396 36.6567 36.2514 36.7136 36.1037 36.7289C35.9613 36.7798 35.8118 36.8027 35.6747 36.8638C35.5342 36.9135 35.3978 36.9682 35.2698 37.0294C35.1373 37.0821 35.019 37.1509 34.9008 37.2021C34.7864 37.2637 34.6814 37.3195 34.5885 37.3692C34.4937 37.4219 34.411 37.4678 34.3426 37.5056C34.2025 37.5843 34.1221 37.6291 34.1221 37.6291Z" fill="#29202E"/>
<path d="M43.7119 37.6291C43.7119 37.6291 43.832 37.2621 44.2067 36.8359C44.3056 36.7362 44.4042 36.6143 44.5345 36.5149C44.6584 36.4071 44.7996 36.3043 44.9586 36.2137C45.1097 36.1116 45.294 36.0482 45.473 35.9721C45.6649 35.9251 45.8556 35.8559 46.0622 35.8513C46.1645 35.846 46.2665 35.8384 46.3677 35.8372C46.4697 35.8468 46.5705 35.8624 46.6702 35.8762C46.8734 35.8896 47.0536 35.9836 47.2311 36.0451C47.4078 36.1113 47.5487 36.2309 47.6911 36.3188C47.8372 36.4044 47.9301 36.5401 48.0332 36.6383C48.1329 36.7408 48.2209 36.8356 48.2765 36.9395C48.3392 37.0358 48.3868 37.1249 48.4264 37.1964C48.5042 37.3405 48.5401 37.4253 48.5401 37.4253C48.5401 37.4253 48.4521 37.3848 48.312 37.3095C48.2428 37.2709 48.1583 37.2266 48.0695 37.17C47.983 37.1092 47.8686 37.0691 47.7568 37.0125C47.639 36.9671 47.5294 36.8856 47.3942 36.8532C47.2617 36.818 47.1351 36.7488 46.9939 36.7263C46.8526 36.7087 46.7163 36.6532 46.5698 36.6597C46.4972 36.6555 46.4251 36.6532 46.353 36.6445L46.1336 36.6624C45.9859 36.6567 45.8409 36.7136 45.6932 36.7289C45.5508 36.7798 45.4016 36.8027 45.2645 36.8638C45.1236 36.9135 44.9877 36.9682 44.8593 37.0294C44.7271 37.0821 44.6089 37.1509 44.4907 37.2021C44.3759 37.2637 44.2712 37.3195 44.178 37.3692C44.0832 37.4219 44.0005 37.4678 43.9325 37.5056C43.792 37.5843 43.7119 37.6291 43.7119 37.6291Z" fill="#29202E"/>
<path d="M36.8477 47.2752L46.2 47.1846C46.2 47.1846 42.1351 51.0019 36.8477 47.2752Z" fill="white"/>
<path d="M30.2386 29.693C30.2386 29.693 29.6721 43.7397 31.2772 50.333C32.4854 55.2954 35.9981 56.6397 35.9981 56.6397C35.9981 56.6397 44.3069 59.8886 48.9334 54.633C50.2658 53.1194 52.3325 45.173 51.3883 30.9352L47.9892 29.5019C47.9892 29.5019 48.5557 36.4774 50.2553 37.3374C50.2553 37.3374 49.7556 49.804 47.6115 51.2886C45.8176 52.5308 48.839 45.5552 45.3455 45.6508C41.852 45.7463 41.7576 45.8419 41.7576 45.8419C41.7576 45.8419 35.526 44.7908 35.6204 47.2752C35.7149 49.7597 36.3758 51.3841 35.526 51.3841C34.6763 51.3841 31.5605 49.3775 32.127 36.2863C32.127 36.2863 33.9209 35.6174 33.9209 31.0308C33.9209 24.9985 30.2386 29.693 30.2386 29.693Z" fill="#29202E"/>
<path d="M33.5434 28.9285C33.5434 28.9285 36.2596 32.6552 39.4917 32.6552C41.2857 32.6552 39.4917 29.5019 39.4917 29.5019C39.4917 29.5019 42.041 33.5152 44.6847 33.4197C47.3284 33.3241 45.0624 29.5019 45.0624 29.5019C45.0624 29.5019 47.0452 33.6108 49.5 33.4197C51.9549 33.2285 49.8777 29.2152 49.8777 29.2152C49.8777 29.2152 51.0107 33.5152 53.3712 32.9419C55.7316 32.3685 52.8047 28.6419 52.8047 28.6419C52.8047 28.6419 54.7875 30.553 55.6372 30.4574C56.487 30.3619 56.487 27.7819 53.56 26.5396C53.56 26.5396 56.487 26.4441 56.5814 25.0107C56.6883 23.3867 54.7875 22.813 50.4442 23.2907C50.4442 23.2907 54.0321 21.7618 53.2768 20.4241C52.5214 19.0863 49.3112 20.9974 49.3112 20.9974C49.3112 20.9974 52.5214 19.1818 50.6331 17.7485C49.0831 16.572 41.0024 16.6018 36.0927 22.5263C36.0927 22.5263 46.2898 17.0796 45.0624 16.3152C44.1956 15.7751 31.9972 18.5336 30.1443 23.7685C27.8783 30.1708 29.5778 33.8019 30.3105 38.1611L33.5434 28.9285Z" fill="#29202E"/>
</svg>
