<svg width="36" height="12" viewBox="0 0 36 12" fill="none" xmlns="http://www.w3.org/2000/svg">
<path d="M6.52344 8.2793C6.52344 8.87174 6.3776 9.38216 6.08594 9.81055C5.79883 10.2389 5.38411 10.5671 4.8418 10.7949C4.30404 11.0228 3.66146 11.1367 2.91406 11.1367C2.54948 11.1367 2.20085 11.1162 1.86816 11.0752C1.53548 11.0342 1.22103 10.9749 0.924805 10.8975C0.633138 10.8154 0.366536 10.7174 0.125 10.6035V9.05859C0.530599 9.23633 0.984049 9.39811 1.48535 9.54395C1.98665 9.68522 2.49707 9.75586 3.0166 9.75586C3.44043 9.75586 3.79134 9.70117 4.06934 9.5918C4.35189 9.47786 4.56152 9.31836 4.69824 9.11328C4.83496 8.90365 4.90332 8.65983 4.90332 8.38184C4.90332 8.08561 4.82357 7.83496 4.66406 7.62988C4.50456 7.4248 4.26302 7.23796 3.93945 7.06934C3.62044 6.89616 3.2194 6.71159 2.73633 6.51562C2.4082 6.38346 2.09375 6.23307 1.79297 6.06445C1.49674 5.89583 1.23242 5.69759 1 5.46973C0.767578 5.24186 0.583008 4.97298 0.446289 4.66309C0.314128 4.34863 0.248047 3.97949 0.248047 3.55566C0.248047 2.99056 0.382487 2.50749 0.651367 2.10645C0.924805 1.7054 1.30762 1.39779 1.7998 1.18359C2.29655 0.969401 2.87533 0.862305 3.53613 0.862305C4.06022 0.862305 4.55241 0.916992 5.0127 1.02637C5.47754 1.13574 5.93327 1.29069 6.37988 1.49121L5.86035 2.81055C5.4502 2.64193 5.05143 2.50749 4.66406 2.40723C4.28125 2.30697 3.88932 2.25684 3.48828 2.25684C3.14193 2.25684 2.84798 2.30924 2.60645 2.41406C2.36491 2.51888 2.18034 2.66699 2.05273 2.8584C1.92969 3.04525 1.86816 3.26855 1.86816 3.52832C1.86816 3.81999 1.9388 4.06608 2.08008 4.2666C2.22591 4.46257 2.44922 4.64258 2.75 4.80664C3.05534 4.9707 3.44727 5.15299 3.92578 5.35352C4.47721 5.58138 4.94434 5.82064 5.32715 6.07129C5.71452 6.32194 6.01074 6.62272 6.21582 6.97363C6.4209 7.31999 6.52344 7.75521 6.52344 8.2793ZM9.89355 0.363281V3.03613C9.89355 3.31413 9.88444 3.58529 9.86621 3.84961C9.85254 4.11393 9.83659 4.31901 9.81836 4.46484H9.90723C10.0667 4.20052 10.2627 3.98405 10.4951 3.81543C10.7275 3.64225 10.9873 3.51237 11.2744 3.42578C11.5661 3.33919 11.876 3.2959 12.2041 3.2959C12.7829 3.2959 13.2751 3.39388 13.6807 3.58984C14.0863 3.78125 14.3962 4.07975 14.6104 4.48535C14.8291 4.89095 14.9385 5.41732 14.9385 6.06445V11H13.332V6.36523C13.332 5.77734 13.2113 5.33757 12.9697 5.0459C12.7282 4.74967 12.3545 4.60156 11.8486 4.60156C11.361 4.60156 10.9736 4.7041 10.6865 4.90918C10.404 5.1097 10.2012 5.4082 10.0781 5.80469C9.95508 6.19661 9.89355 6.67513 9.89355 7.24023V11H8.28711V0.363281H9.89355ZM23.8867 7.19922C23.8867 7.82812 23.8047 8.38639 23.6406 8.87402C23.4766 9.36165 23.2373 9.77409 22.9229 10.1113C22.6084 10.444 22.2301 10.6992 21.7881 10.877C21.346 11.0501 20.847 11.1367 20.291 11.1367C19.7715 11.1367 19.2952 11.0501 18.8623 10.877C18.4294 10.6992 18.0534 10.444 17.7344 10.1113C17.4199 9.77409 17.1761 9.36165 17.0029 8.87402C16.8298 8.38639 16.7432 7.82812 16.7432 7.19922C16.7432 6.36523 16.8867 5.65885 17.1738 5.08008C17.4655 4.49674 17.8802 4.05241 18.418 3.74707C18.9557 3.44173 19.596 3.28906 20.3389 3.28906C21.0361 3.28906 21.6514 3.44173 22.1846 3.74707C22.7178 4.05241 23.1348 4.49674 23.4355 5.08008C23.7363 5.66341 23.8867 6.36979 23.8867 7.19922ZM18.3975 7.19922C18.3975 7.75065 18.4635 8.22233 18.5957 8.61426C18.7324 9.00618 18.9421 9.30697 19.2246 9.5166C19.5072 9.72168 19.8717 9.82422 20.3184 9.82422C20.765 9.82422 21.1296 9.72168 21.4121 9.5166C21.6947 9.30697 21.902 9.00618 22.0342 8.61426C22.1663 8.22233 22.2324 7.75065 22.2324 7.19922C22.2324 6.64779 22.1663 6.18066 22.0342 5.79785C21.902 5.41048 21.6947 5.11654 21.4121 4.91602C21.1296 4.71094 20.7627 4.6084 20.3115 4.6084C19.6462 4.6084 19.1608 4.83171 18.8555 5.27832C18.5501 5.72493 18.3975 6.36523 18.3975 7.19922ZM31.9189 10.9932L30.9619 7.47266C30.9163 7.29948 30.8617 7.08984 30.7979 6.84375C30.734 6.59766 30.6702 6.34473 30.6064 6.08496C30.5426 5.82064 30.4834 5.57682 30.4287 5.35352C30.3786 5.13021 30.3398 4.95703 30.3125 4.83398H30.2578C30.235 4.95703 30.1986 5.13021 30.1484 5.35352C30.0983 5.57682 30.0413 5.82064 29.9775 6.08496C29.9137 6.34928 29.8499 6.60677 29.7861 6.85742C29.7269 7.10807 29.6722 7.32227 29.6221 7.5L28.6172 10.9932H26.8535L24.7344 3.42578H26.3613L27.3457 7.18555C27.4095 7.44076 27.471 7.71647 27.5303 8.0127C27.5941 8.30892 27.6488 8.59147 27.6943 8.86035C27.7399 9.12923 27.7741 9.35026 27.7969 9.52344H27.8516C27.8698 9.40039 27.8949 9.24544 27.9268 9.05859C27.9587 8.86719 27.9951 8.66895 28.0361 8.46387C28.0771 8.25423 28.1182 8.05827 28.1592 7.87598C28.2002 7.68913 28.2389 7.53874 28.2754 7.4248L29.4375 3.42578H31.1943L32.3086 7.4248C32.3587 7.59798 32.4134 7.81673 32.4727 8.08105C32.5319 8.34082 32.5843 8.60286 32.6299 8.86719C32.68 9.12695 32.7119 9.34342 32.7256 9.5166H32.7803C32.7985 9.36165 32.8304 9.15202 32.876 8.8877C32.9261 8.61882 32.9831 8.33398 33.0469 8.0332C33.1107 7.72786 33.1768 7.44531 33.2451 7.18555L34.25 3.42578H35.8496L33.7168 10.9932H31.9189Z" fill="#2E3033"/>
</svg>
