<svg width="365" height="109" viewBox="0 0 365 109" fill="none" xmlns="http://www.w3.org/2000/svg">
<g filter="url(#filter0_d_126_11640)">
<rect x="12" y="12" width="341" height="85" rx="16" fill="url(#paint0_linear_126_11640)" shape-rendering="crispEdges"/>
<path opacity="0.2" d="M49.9295 37.0003C49.9295 44.1422 44.14 49.9319 36.9982 49.9319C29.8562 49.9319 24.0667 44.1422 24.0667 37.0003C24.0667 29.8584 29.8562 24.0688 36.9982 24.0688C44.1399 24.0688 49.9295 29.8584 49.9295 37.0003Z" fill="white"/>
<path d="M40.52 35.5934C40.4133 35.5934 40.3 35.5734 40.1933 35.5267L37.0133 34.1134L33.8 35.5267C33.4667 35.6734 33.0733 35.5801 32.8467 35.2867C32.62 34.9934 32.6267 34.5867 32.8667 34.3067L36.2 30.2334C36.6067 29.7334 37.3933 29.7334 37.8067 30.2334L41.14 34.3067C41.3733 34.5934 41.38 34.9934 41.16 35.2867C40.9933 35.4801 40.76 35.5934 40.52 35.5934ZM37 33.1067C37.14 33.1067 37.2867 33.1334 37.42 33.1934L39.8067 34.2534L37.0266 30.8601L34.2067 34.2467L36.58 33.1934C36.7133 33.1334 36.8533 33.1067 37 33.1067Z" fill="white"/>
<path d="M37 44.1665C36.6933 44.1665 36.4 44.0265 36.2 43.7731L32.8667 39.6998C32.6333 39.4131 32.6267 39.0131 32.8467 38.7198C33.0733 38.4265 33.46 38.3265 33.8 38.4731L36.9867 39.8865L40.2 38.4731C40.54 38.3265 40.9267 38.4265 41.1533 38.7198C41.3733 39.0131 41.3667 39.4131 41.1333 39.6998L37.8 43.7731C37.6 44.0265 37.3067 44.1665 37 44.1665ZM34.1933 39.7465L36.9667 43.1398L39.7867 39.7531L37.42 40.8065C37.1533 40.9265 36.8467 40.9265 36.58 40.8065L34.1933 39.7465Z" fill="white"/>
<path d="M37 39.2465C36.92 39.2465 36.8467 39.2265 36.78 39.1931L33.28 37.4465C33.1133 37.3598 33 37.1865 33 36.9998C33 36.8131 33.1067 36.6398 33.28 36.5531L36.78 34.8065C36.92 34.7331 37.0867 34.7331 37.2267 34.8065L40.7267 36.5531C40.8934 36.6398 41.0067 36.8131 41.0067 36.9998C41.0067 37.1865 40.9 37.3598 40.7267 37.4465L37.2267 39.1931C37.1534 39.2331 37.08 39.2465 37 39.2465ZM34.62 36.9998L37 38.1865L39.38 36.9998L37 35.8131L34.62 36.9998Z" fill="white"/>
<path d="M69.9688 43H63.5V31.5781H69.9688V33.1562H65.375V36.2578H69.6797V37.8281H65.375V41.4141H69.9688V43ZM75.4688 41.6719C75.7083 41.6719 75.9453 41.651 76.1797 41.6094C76.4141 41.5625 76.6276 41.5078 76.8203 41.4453V42.8359C76.6172 42.9245 76.3542 43 76.0312 43.0625C75.7083 43.125 75.3724 43.1562 75.0234 43.1562C74.5339 43.1562 74.0938 43.0755 73.7031 42.9141C73.3125 42.7474 73.0026 42.4635 72.7734 42.0625C72.5443 41.6615 72.4297 41.1068 72.4297 40.3984V35.75H71.25V34.9297L72.5156 34.2812L73.1172 32.4297H74.2734V34.3516H76.75V35.75H74.2734V40.375C74.2734 40.8125 74.3828 41.138 74.6016 41.3516C74.8203 41.5651 75.1094 41.6719 75.4688 41.6719ZM80.4141 30.8438V33.8984C80.4141 34.2161 80.4036 34.526 80.3828 34.8281C80.3672 35.1302 80.349 35.3646 80.3281 35.5312H80.4297C80.612 35.2292 80.8359 34.9818 81.1016 34.7891C81.3672 34.5911 81.6641 34.4427 81.9922 34.3438C82.3255 34.2448 82.6797 34.1953 83.0547 34.1953C83.7161 34.1953 84.2786 34.3073 84.7422 34.5312C85.2057 34.75 85.5599 35.0911 85.8047 35.5547C86.0547 36.0182 86.1797 36.6198 86.1797 37.3594V43H84.3438V37.7031C84.3438 37.0312 84.2057 36.5286 83.9297 36.1953C83.6536 35.8568 83.2266 35.6875 82.6484 35.6875C82.0911 35.6875 81.6484 35.8047 81.3203 36.0391C80.9974 36.2682 80.7656 36.6094 80.625 37.0625C80.4844 37.5104 80.4141 38.0573 80.4141 38.7031V43H78.5781V30.8438H80.4141ZM92.1953 34.1875C92.9661 34.1875 93.6276 34.3464 94.1797 34.6641C94.7318 34.9818 95.1562 35.4323 95.4531 36.0156C95.75 36.599 95.8984 37.2969 95.8984 38.1094V39.0938H90.125C90.1458 39.9323 90.3698 40.5781 90.7969 41.0312C91.2292 41.4844 91.8333 41.7109 92.6094 41.7109C93.1615 41.7109 93.6562 41.6589 94.0938 41.5547C94.5365 41.4453 94.9922 41.2865 95.4609 41.0781V42.5703C95.0286 42.7734 94.5885 42.9219 94.1406 43.0156C93.6927 43.1094 93.1562 43.1562 92.5312 43.1562C91.6823 43.1562 90.9349 42.9922 90.2891 42.6641C89.6484 42.3307 89.1458 41.8359 88.7812 41.1797C88.4219 40.5234 88.2422 39.7083 88.2422 38.7344C88.2422 37.7656 88.4062 36.9427 88.7344 36.2656C89.0625 35.5885 89.5234 35.0729 90.1172 34.7188C90.7109 34.3646 91.4036 34.1875 92.1953 34.1875ZM92.1953 35.5703C91.6172 35.5703 91.1484 35.7578 90.7891 36.1328C90.4349 36.5078 90.2266 37.0573 90.1641 37.7812H94.1016C94.0964 37.349 94.0234 36.9661 93.8828 36.6328C93.7474 36.2995 93.5391 36.0391 93.2578 35.8516C92.9818 35.6641 92.6276 35.5703 92.1953 35.5703ZM102.352 34.1875C102.497 34.1875 102.656 34.1953 102.828 34.2109C103 34.2266 103.148 34.2474 103.273 34.2734L103.102 35.9922C102.992 35.9609 102.857 35.9375 102.695 35.9219C102.539 35.9062 102.398 35.8984 102.273 35.8984C101.945 35.8984 101.633 35.9531 101.336 36.0625C101.039 36.1667 100.776 36.3281 100.547 36.5469C100.318 36.7604 100.138 37.0286 100.008 37.3516C99.8776 37.6745 99.8125 38.0495 99.8125 38.4766V43H97.9688V34.3516H99.4062L99.6562 35.875H99.7422C99.9141 35.5677 100.128 35.2865 100.383 35.0312C100.638 34.776 100.93 34.5729 101.258 34.4219C101.591 34.2656 101.956 34.1875 102.352 34.1875ZM106.711 34.3516V43H104.875V34.3516H106.711ZM105.805 31.0391C106.086 31.0391 106.328 31.1146 106.531 31.2656C106.74 31.4167 106.844 31.6771 106.844 32.0469C106.844 32.4115 106.74 32.6719 106.531 32.8281C106.328 32.9792 106.086 33.0547 105.805 33.0547C105.513 33.0547 105.266 32.9792 105.062 32.8281C104.865 32.6719 104.766 32.4115 104.766 32.0469C104.766 31.6771 104.865 31.4167 105.062 31.2656C105.266 31.1146 105.513 31.0391 105.805 31.0391ZM116.883 34.3516V43H115.438L115.188 41.8359H115.086C114.904 42.1328 114.672 42.3802 114.391 42.5781C114.109 42.7708 113.797 42.9141 113.453 43.0078C113.109 43.1068 112.747 43.1562 112.367 43.1562C111.716 43.1562 111.159 43.0469 110.695 42.8281C110.237 42.6042 109.885 42.2604 109.641 41.7969C109.396 41.3333 109.273 40.7344 109.273 40V34.3516H111.117V39.6562C111.117 40.3281 111.253 40.8307 111.523 41.1641C111.799 41.4974 112.227 41.6641 112.805 41.6641C113.362 41.6641 113.805 41.5495 114.133 41.3203C114.461 41.0911 114.693 40.7526 114.828 40.3047C114.969 39.8568 115.039 39.3073 115.039 38.6562V34.3516H116.883ZM129.289 34.1875C130.258 34.1875 130.987 34.4375 131.477 34.9375C131.971 35.4375 132.219 36.2396 132.219 37.3438V43H130.383V37.6719C130.383 37.0156 130.255 36.5208 130 36.1875C129.745 35.8542 129.357 35.6875 128.836 35.6875C128.107 35.6875 127.581 35.9219 127.258 36.3906C126.94 36.8542 126.781 37.5286 126.781 38.4141V43H124.945V37.6719C124.945 37.2344 124.888 36.8698 124.773 36.5781C124.664 36.2812 124.495 36.0599 124.266 35.9141C124.036 35.763 123.747 35.6875 123.398 35.6875C122.893 35.6875 122.49 35.8021 122.188 36.0312C121.891 36.2604 121.677 36.599 121.547 37.0469C121.417 37.4896 121.352 38.0339 121.352 38.6797V43H119.516V34.3516H120.945L121.203 35.5156H121.305C121.482 35.2135 121.701 34.9661 121.961 34.7734C122.227 34.5755 122.521 34.4297 122.844 34.3359C123.167 34.237 123.503 34.1875 123.852 34.1875C124.497 34.1875 125.042 34.3021 125.484 34.5312C125.927 34.7552 126.258 35.099 126.477 35.5625H126.617C126.888 35.0938 127.266 34.7474 127.75 34.5234C128.234 34.2995 128.747 34.1875 129.289 34.1875Z" fill="#E8F2FF"/>
<path d="M156 41C155.417 41 154.833 40.775 154.392 40.3334L148.958 34.9C148.717 34.6584 148.717 34.2584 148.958 34.0167C149.2 33.775 149.6 33.775 149.842 34.0167L155.275 39.45C155.675 39.85 156.325 39.85 156.725 39.45L162.158 34.0167C162.4 33.775 162.8 33.775 163.042 34.0167C163.283 34.2584 163.283 34.6584 163.042 34.9L157.608 40.3334C157.167 40.775 156.583 41 156 41Z" fill="white"/>
<path d="M263.047 43.9297V42.3203C262.401 42.3099 261.805 42.2526 261.258 42.1484C260.716 42.0391 260.247 41.8984 259.852 41.7266V40.0625C260.253 40.25 260.747 40.4193 261.336 40.5703C261.924 40.7214 262.495 40.8073 263.047 40.8281V37.8984C262.292 37.6432 261.677 37.3776 261.203 37.1016C260.734 36.8255 260.391 36.5052 260.172 36.1406C259.953 35.7708 259.844 35.3281 259.844 34.8125C259.844 34.2812 259.977 33.8255 260.242 33.4453C260.513 33.0599 260.888 32.7552 261.367 32.5312C261.852 32.3073 262.411 32.1745 263.047 32.1328V30.8594H264.062V32.1094C264.641 32.125 265.174 32.1901 265.664 32.3047C266.159 32.4141 266.63 32.5677 267.078 32.7656L266.508 34.2188C266.117 34.0625 265.711 33.9349 265.289 33.8359C264.867 33.737 264.458 33.6693 264.062 33.6328V36.4922C264.698 36.7005 265.263 36.9245 265.758 37.1641C266.258 37.4036 266.648 37.7057 266.93 38.0703C267.216 38.4297 267.359 38.901 267.359 39.4844C267.359 40.25 267.078 40.8828 266.516 41.3828C265.953 41.8776 265.135 42.1745 264.062 42.2734V43.9297H263.047ZM264.062 40.7656C264.562 40.7031 264.935 40.5729 265.18 40.375C265.424 40.1719 265.547 39.9089 265.547 39.5859C265.547 39.3672 265.495 39.1823 265.391 39.0312C265.292 38.8802 265.133 38.7448 264.914 38.625C264.701 38.5052 264.417 38.388 264.062 38.2734V40.7656ZM263.047 36.1094V33.6641C262.745 33.6953 262.49 33.7578 262.281 33.8516C262.073 33.9453 261.917 34.0677 261.812 34.2188C261.708 34.3698 261.656 34.5495 261.656 34.7578C261.656 34.987 261.703 35.1823 261.797 35.3438C261.891 35.5052 262.039 35.6458 262.242 35.7656C262.451 35.8854 262.719 36 263.047 36.1094ZM274.273 43H272.43V35.6484C272.43 35.4036 272.432 35.1589 272.438 34.9141C272.443 34.6693 272.448 34.4297 272.453 34.1953C272.464 33.9609 272.477 33.737 272.492 33.5234C272.383 33.6432 272.247 33.7734 272.086 33.9141C271.93 34.0547 271.763 34.2005 271.586 34.3516L270.273 35.3984L269.352 34.2344L272.742 31.5781H274.273V43ZM285.766 43H278.031V41.6172L280.992 38.6172C281.565 38.0339 282.036 37.5312 282.406 37.1094C282.776 36.6823 283.049 36.2786 283.227 35.8984C283.409 35.5182 283.5 35.1042 283.5 34.6562C283.5 34.1042 283.341 33.6875 283.023 33.4062C282.706 33.1198 282.286 32.9766 281.766 32.9766C281.271 32.9766 280.812 33.0755 280.391 33.2734C279.974 33.4661 279.542 33.7422 279.094 34.1016L278.086 32.8906C278.404 32.6198 278.742 32.3724 279.102 32.1484C279.466 31.9245 279.872 31.7474 280.32 31.6172C280.768 31.4818 281.279 31.4141 281.852 31.4141C282.576 31.4141 283.201 31.5443 283.727 31.8047C284.253 32.0599 284.656 32.4167 284.938 32.875C285.224 33.3333 285.367 33.8672 285.367 34.4766C285.367 35.0911 285.245 35.6589 285 36.1797C284.755 36.7005 284.406 37.2161 283.953 37.7266C283.5 38.2318 282.961 38.7812 282.336 39.375L280.359 41.3047V41.3906H285.766V43ZM289.633 41.1406L289.742 41.3203C289.648 41.6953 289.529 42.099 289.383 42.5312C289.237 42.9635 289.078 43.3958 288.906 43.8281C288.734 44.2656 288.56 44.6771 288.383 45.0625H287.039C287.148 44.6406 287.253 44.1979 287.352 43.7344C287.456 43.276 287.549 42.8229 287.633 42.375C287.721 41.9219 287.792 41.5104 287.844 41.1406H289.633ZM295.43 35.8594C296.164 35.8594 296.81 35.9922 297.367 36.2578C297.93 36.5182 298.367 36.9036 298.68 37.4141C298.992 37.9193 299.148 38.5391 299.148 39.2734C299.148 40.0755 298.979 40.7682 298.641 41.3516C298.302 41.9297 297.805 42.375 297.148 42.6875C296.492 43 295.693 43.1562 294.75 43.1562C294.151 43.1562 293.591 43.1042 293.07 43C292.555 42.8958 292.109 42.7396 291.734 42.5312V40.875C292.125 41.0938 292.594 41.2734 293.141 41.4141C293.688 41.5495 294.211 41.6172 294.711 41.6172C295.242 41.6172 295.698 41.5391 296.078 41.3828C296.458 41.2266 296.75 40.987 296.953 40.6641C297.161 40.3411 297.266 39.9323 297.266 39.4375C297.266 38.7812 297.055 38.276 296.633 37.9219C296.216 37.5625 295.562 37.3828 294.672 37.3828C294.359 37.3828 294.026 37.4115 293.672 37.4688C293.323 37.5208 293.031 37.5781 292.797 37.6406L291.992 37.1641L292.422 31.5781H298.359V33.1953H294.039L293.789 36.0391C293.977 35.9974 294.201 35.9583 294.461 35.9219C294.721 35.8802 295.044 35.8594 295.43 35.8594ZM308.438 37.2812C308.438 38.2031 308.365 39.0286 308.219 39.7578C308.078 40.4818 307.854 41.0964 307.547 41.6016C307.24 42.1068 306.839 42.4922 306.344 42.7578C305.849 43.0234 305.25 43.1562 304.547 43.1562C303.667 43.1562 302.94 42.9245 302.367 42.4609C301.794 41.9922 301.37 41.3203 301.094 40.4453C300.818 39.5651 300.68 38.5104 300.68 37.2812C300.68 36.0521 300.805 35 301.055 34.125C301.31 33.2448 301.721 32.5703 302.289 32.1016C302.857 31.6328 303.609 31.3984 304.547 31.3984C305.432 31.3984 306.161 31.6328 306.734 32.1016C307.312 32.5651 307.74 33.237 308.016 34.1172C308.297 34.9922 308.438 36.0469 308.438 37.2812ZM302.531 37.2812C302.531 38.2448 302.594 39.0495 302.719 39.6953C302.849 40.3411 303.062 40.8255 303.359 41.1484C303.656 41.4661 304.052 41.625 304.547 41.625C305.042 41.625 305.438 41.4661 305.734 41.1484C306.031 40.8307 306.245 40.349 306.375 39.7031C306.51 39.0573 306.578 38.25 306.578 37.2812C306.578 36.3229 306.513 35.5208 306.383 34.875C306.253 34.2292 306.039 33.7448 305.742 33.4219C305.445 33.0938 305.047 32.9297 304.547 32.9297C304.047 32.9297 303.648 33.0938 303.352 33.4219C303.06 33.7448 302.849 34.2292 302.719 34.875C302.594 35.5208 302.531 36.3229 302.531 37.2812ZM317.594 37.2812C317.594 38.2031 317.521 39.0286 317.375 39.7578C317.234 40.4818 317.01 41.0964 316.703 41.6016C316.396 42.1068 315.995 42.4922 315.5 42.7578C315.005 43.0234 314.406 43.1562 313.703 43.1562C312.823 43.1562 312.096 42.9245 311.523 42.4609C310.951 41.9922 310.526 41.3203 310.25 40.4453C309.974 39.5651 309.836 38.5104 309.836 37.2812C309.836 36.0521 309.961 35 310.211 34.125C310.466 33.2448 310.878 32.5703 311.445 32.1016C312.013 31.6328 312.766 31.3984 313.703 31.3984C314.589 31.3984 315.318 31.6328 315.891 32.1016C316.469 32.5651 316.896 33.237 317.172 34.1172C317.453 34.9922 317.594 36.0469 317.594 37.2812ZM311.688 37.2812C311.688 38.2448 311.75 39.0495 311.875 39.6953C312.005 40.3411 312.219 40.8255 312.516 41.1484C312.812 41.4661 313.208 41.625 313.703 41.625C314.198 41.625 314.594 41.4661 314.891 41.1484C315.188 40.8307 315.401 40.349 315.531 39.7031C315.667 39.0573 315.734 38.25 315.734 37.2812C315.734 36.3229 315.669 35.5208 315.539 34.875C315.409 34.2292 315.195 33.7448 314.898 33.4219C314.602 33.0938 314.203 32.9297 313.703 32.9297C313.203 32.9297 312.805 33.0938 312.508 33.4219C312.216 33.7448 312.005 34.2292 311.875 34.875C311.75 35.5208 311.688 36.3229 311.688 37.2812ZM319.344 42.0312C319.344 41.6042 319.453 41.3047 319.672 41.1328C319.896 40.9557 320.167 40.8672 320.484 40.8672C320.802 40.8672 321.073 40.9557 321.297 41.1328C321.526 41.3047 321.641 41.6042 321.641 42.0312C321.641 42.4479 321.526 42.75 321.297 42.9375C321.073 43.1198 320.802 43.2109 320.484 43.2109C320.167 43.2109 319.896 43.1198 319.672 42.9375C319.453 42.75 319.344 42.4479 319.344 42.0312ZM331.141 37.2812C331.141 38.2031 331.068 39.0286 330.922 39.7578C330.781 40.4818 330.557 41.0964 330.25 41.6016C329.943 42.1068 329.542 42.4922 329.047 42.7578C328.552 43.0234 327.953 43.1562 327.25 43.1562C326.37 43.1562 325.643 42.9245 325.07 42.4609C324.497 41.9922 324.073 41.3203 323.797 40.4453C323.521 39.5651 323.383 38.5104 323.383 37.2812C323.383 36.0521 323.508 35 323.758 34.125C324.013 33.2448 324.424 32.5703 324.992 32.1016C325.56 31.6328 326.312 31.3984 327.25 31.3984C328.135 31.3984 328.865 31.6328 329.438 32.1016C330.016 32.5651 330.443 33.237 330.719 34.1172C331 34.9922 331.141 36.0469 331.141 37.2812ZM325.234 37.2812C325.234 38.2448 325.297 39.0495 325.422 39.6953C325.552 40.3411 325.766 40.8255 326.062 41.1484C326.359 41.4661 326.755 41.625 327.25 41.625C327.745 41.625 328.141 41.4661 328.438 41.1484C328.734 40.8307 328.948 40.349 329.078 39.7031C329.214 39.0573 329.281 38.25 329.281 37.2812C329.281 36.3229 329.216 35.5208 329.086 34.875C328.956 34.2292 328.742 33.7448 328.445 33.4219C328.148 33.0938 327.75 32.9297 327.25 32.9297C326.75 32.9297 326.352 33.0938 326.055 33.4219C325.763 33.7448 325.552 34.2292 325.422 34.875C325.297 35.5208 325.234 36.3229 325.234 37.2812ZM340.297 37.2812C340.297 38.2031 340.224 39.0286 340.078 39.7578C339.938 40.4818 339.714 41.0964 339.406 41.6016C339.099 42.1068 338.698 42.4922 338.203 42.7578C337.708 43.0234 337.109 43.1562 336.406 43.1562C335.526 43.1562 334.799 42.9245 334.227 42.4609C333.654 41.9922 333.229 41.3203 332.953 40.4453C332.677 39.5651 332.539 38.5104 332.539 37.2812C332.539 36.0521 332.664 35 332.914 34.125C333.169 33.2448 333.581 32.5703 334.148 32.1016C334.716 31.6328 335.469 31.3984 336.406 31.3984C337.292 31.3984 338.021 31.6328 338.594 32.1016C339.172 32.5651 339.599 33.237 339.875 34.1172C340.156 34.9922 340.297 36.0469 340.297 37.2812ZM334.391 37.2812C334.391 38.2448 334.453 39.0495 334.578 39.6953C334.708 40.3411 334.922 40.8255 335.219 41.1484C335.516 41.4661 335.911 41.625 336.406 41.625C336.901 41.625 337.297 41.4661 337.594 41.1484C337.891 40.8307 338.104 40.349 338.234 39.7031C338.37 39.0573 338.438 38.25 338.438 37.2812C338.438 36.3229 338.372 35.5208 338.242 34.875C338.112 34.2292 337.898 33.7448 337.602 33.4219C337.305 33.0938 336.906 32.9297 336.406 32.9297C335.906 32.9297 335.508 33.0938 335.211 33.4219C334.919 33.7448 334.708 34.2292 334.578 34.875C334.453 35.5208 334.391 36.3229 334.391 37.2812Z" fill="white"/>
<path opacity="0.5" d="M30.9316 81H25.3672V71.0059H30.9316V72.0312H26.5293V75.2646H30.6787V76.2764H26.5293V79.9746H30.9316V81ZM36.2158 81H35.0469V72.0312H31.9023V71.0059H39.3467V72.0312H36.2158V81ZM48.4316 81H47.2695V76.29H42.0195V81H40.8574V71.0059H42.0195V75.2646H47.2695V71.0059H48.4316V81Z" fill="white"/>
<path d="M250.457 75.5996H253.273V76.5293H250.457V79.4277H249.521V76.5293H246.704V75.5996H249.521V72.6875H250.457V75.5996ZM261.75 78.6826H260.253V81H259.146V78.6826H254.312V77.7256L259.07 70.9512H260.253V77.6572H261.75V78.6826ZM259.146 77.6572V74.3896C259.146 74.139 259.148 73.9134 259.152 73.7129C259.157 73.5078 259.164 73.3187 259.173 73.1455C259.182 72.9678 259.189 72.7992 259.193 72.6396C259.202 72.4801 259.209 72.3229 259.214 72.168H259.159C259.073 72.3503 258.972 72.5439 258.858 72.749C258.749 72.9495 258.637 73.1296 258.523 73.2891L255.44 77.6572H259.146ZM263.049 80.2891C263.049 79.9701 263.126 79.7445 263.281 79.6123C263.436 79.4756 263.625 79.4072 263.849 79.4072C264.081 79.4072 264.277 79.4756 264.437 79.6123C264.596 79.7445 264.676 79.9701 264.676 80.2891C264.676 80.6035 264.596 80.8337 264.437 80.9795C264.277 81.1208 264.081 81.1914 263.849 81.1914C263.625 81.1914 263.436 81.1208 263.281 80.9795C263.126 80.8337 263.049 80.6035 263.049 80.2891ZM269.55 74.8887C270.229 74.8887 270.819 75.0049 271.32 75.2373C271.822 75.4652 272.209 75.7979 272.482 76.2354C272.76 76.6729 272.899 77.2038 272.899 77.8281C272.899 78.5117 272.751 79.1019 272.455 79.5986C272.159 80.0908 271.733 80.4714 271.177 80.7402C270.621 81.0046 269.955 81.1367 269.181 81.1367C268.661 81.1367 268.178 81.0911 267.731 81C267.285 80.9089 266.909 80.7721 266.604 80.5898V79.5098C266.936 79.7103 267.34 79.8698 267.813 79.9883C268.287 80.1068 268.748 80.166 269.194 80.166C269.7 80.166 270.142 80.0863 270.521 79.9268C270.903 79.7627 271.2 79.5166 271.409 79.1885C271.623 78.8558 271.73 78.4388 271.73 77.9375C271.73 77.2721 271.525 76.7594 271.115 76.3994C270.71 76.0348 270.067 75.8525 269.188 75.8525C268.905 75.8525 268.595 75.8753 268.258 75.9209C267.921 75.9665 267.643 76.0166 267.424 76.0713L266.85 75.6953L267.232 71.0059H272.202V72.0449H268.203L267.95 75.0596C268.123 75.0231 268.347 74.9867 268.62 74.9502C268.894 74.9092 269.203 74.8887 269.55 74.8887ZM276.44 70.8623C277.124 70.8623 277.641 71.1357 277.992 71.6826C278.348 72.2249 278.525 72.9928 278.525 73.9863C278.525 74.9798 278.354 75.7546 278.013 76.3105C277.671 76.862 277.147 77.1377 276.44 77.1377C275.784 77.1377 275.281 76.862 274.93 76.3105C274.583 75.7546 274.41 74.9798 274.41 73.9863C274.41 72.9928 274.576 72.2249 274.909 71.6826C275.242 71.1357 275.752 70.8623 276.44 70.8623ZM276.44 71.6758C276.071 71.6758 275.8 71.8695 275.627 72.2568C275.454 72.6396 275.367 73.2161 275.367 73.9863C275.367 74.7565 275.454 75.3376 275.627 75.7295C275.8 76.1214 276.071 76.3174 276.44 76.3174C276.823 76.3174 277.108 76.1214 277.295 75.7295C277.482 75.3376 277.575 74.7565 277.575 73.9863C277.575 73.2207 277.482 72.6442 277.295 72.2568C277.113 71.8695 276.828 71.6758 276.44 71.6758ZM282.771 71.0059L277.227 81H276.229L281.772 71.0059H282.771ZM282.504 74.8682C283.183 74.8682 283.7 75.1416 284.056 75.6885C284.411 76.2308 284.589 76.9987 284.589 77.9922C284.589 78.9811 284.418 79.7536 284.076 80.3096C283.734 80.861 283.21 81.1367 282.504 81.1367C281.843 81.1367 281.34 80.861 280.993 80.3096C280.647 79.7536 280.474 78.9811 280.474 77.9922C280.474 76.9987 280.638 76.2308 280.966 75.6885C281.299 75.1416 281.811 74.8682 282.504 74.8682ZM282.504 75.6885C282.135 75.6885 281.864 75.8799 281.69 76.2627C281.517 76.6455 281.431 77.222 281.431 77.9922C281.431 78.7624 281.517 79.3434 281.69 79.7354C281.864 80.1227 282.135 80.3164 282.504 80.3164C282.887 80.3164 283.172 80.125 283.358 79.7422C283.545 79.3548 283.639 78.7715 283.639 77.9922C283.639 77.2266 283.545 76.6523 283.358 76.2695C283.176 75.8822 282.891 75.6885 282.504 75.6885Z" fill="white"/>
<path d="M297.416 78.6202L292.719 83.2909C292.086 83.92 292.532 85 293.424 85H340C340.552 85 341 84.5523 341 84V63.4977C341 62.5953 339.899 62.1545 339.276 62.8076L338.203 63.9334C338.014 64.1313 337.752 64.2432 337.479 64.2432H336.313C335.88 64.2432 335.497 64.5212 335.362 64.9323L332.381 74.0414C332.178 74.6633 331.442 74.9254 330.891 74.5721L328.194 72.8418C327.837 72.6127 327.374 72.6339 327.039 72.8946L324.149 75.1464C324.044 75.2282 323.956 75.33 323.891 75.4461L322.613 77.7252C322.277 78.3236 321.452 78.4139 320.995 77.9025L320.188 77.0002C319.856 76.6282 319.3 76.5583 318.886 76.8364L318.039 77.4045C317.517 77.7551 316.804 77.5419 316.56 76.9619L315.485 74.4054L314.61 72.8153C314.28 72.2158 313.459 72.1172 312.997 72.6215L311.962 73.7499C311.655 74.0847 311.116 74.0458 310.86 73.6704C310.595 73.2816 310.031 73.2565 309.733 73.6204L307.987 75.7508C307.697 76.1042 307.205 76.2163 306.791 76.0234L305.994 75.6519C305.529 75.4352 304.975 75.6056 304.713 76.0464L302.587 79.6127C302.307 80.0823 301.702 80.2401 301.229 79.9669L298.621 78.4631C298.23 78.2376 297.737 78.302 297.416 78.6202Z" fill="url(#paint1_linear_126_11640)" fill-opacity="0.5"/>
<path d="M291 85L297.416 78.6202C297.737 78.302 298.23 78.2376 298.621 78.4631L301.229 79.9669C301.702 80.2401 302.307 80.0823 302.587 79.6127L304.713 76.0463C304.975 75.6056 305.529 75.4352 305.994 75.6519L306.791 76.0234C307.205 76.2163 307.697 76.1042 307.987 75.7508L309.733 73.6204C310.031 73.2565 310.595 73.2816 310.86 73.6704V73.6704C311.116 74.0458 311.655 74.0847 311.962 73.7499L312.997 72.6215C313.459 72.1172 314.28 72.2158 314.61 72.8153L315.485 74.4054L316.56 76.9619C316.804 77.5419 317.517 77.7551 318.039 77.4045L318.886 76.8364C319.3 76.5583 319.856 76.6282 320.188 77.0002L320.995 77.9025C321.452 78.4139 322.277 78.3236 322.613 77.7252L323.891 75.4461C323.956 75.33 324.044 75.2282 324.149 75.1464L327.039 72.8946C327.374 72.6339 327.837 72.6127 328.194 72.8418L330.891 74.5721C331.442 74.9254 332.178 74.6633 332.381 74.0414L335.362 64.9323C335.497 64.5212 335.88 64.2432 336.313 64.2432H337.479C337.752 64.2432 338.014 64.1313 338.203 63.9334L341 61" stroke="white"/>
</g>
<defs>
<filter id="filter0_d_126_11640" x="0" y="0" width="365" height="109" filterUnits="userSpaceOnUse" color-interpolation-filters="sRGB">
<feFlood flood-opacity="0" result="BackgroundImageFix"/>
<feColorMatrix in="SourceAlpha" type="matrix" values="0 0 0 0 0 0 0 0 0 0 0 0 0 0 0 0 0 0 127 0" result="hardAlpha"/>
<feOffset/>
<feGaussianBlur stdDeviation="6"/>
<feComposite in2="hardAlpha" operator="out"/>
<feColorMatrix type="matrix" values="0 0 0 0 0.246667 0 0 0 0 0.489943 0 0 0 0 0.8 0 0 0 0.04 0"/>
<feBlend mode="normal" in2="BackgroundImageFix" result="effect1_dropShadow_126_11640"/>
<feBlend mode="normal" in="SourceGraphic" in2="effect1_dropShadow_126_11640" result="shape"/>
</filter>
<linearGradient id="paint0_linear_126_11640" x1="198" y1="-14.8155" x2="362.331" y2="256.685" gradientUnits="userSpaceOnUse">
<stop stop-color="#9747FF"/>
<stop offset="1" stop-color="#177DFF"/>
</linearGradient>
<linearGradient id="paint1_linear_126_11640" x1="316" y1="-7.57142" x2="316" y2="85" gradientUnits="userSpaceOnUse">
<stop offset="0.1875" stop-color="white"/>
<stop offset="1" stop-color="white" stop-opacity="0"/>
</linearGradient>
</defs>
</svg>
