<svg width="343" height="54" viewBox="0 0 343 54" fill="none" xmlns="http://www.w3.org/2000/svg">
<rect width="343" height="54" rx="16" fill="#F3F6F9"/>
<rect x="11" y="12.4097" width="26" height="26" rx="13" fill="#F2C56C" fill-opacity="0.2"/>
<path d="M25.8331 26.0346H21.3164C20.9747 26.0346 20.6914 25.7513 20.6914 25.4096V21.8013C20.6914 21.4596 20.9747 21.1763 21.3164 21.1763H25.8331C27.1247 21.1763 28.2664 22.3096 28.2664 23.6096C28.2664 24.9429 27.1747 26.0346 25.8331 26.0346ZM21.9414 24.7846H25.8331C26.4831 24.7846 27.0164 24.2513 27.0164 23.6013C27.0164 23.0513 26.4997 22.4179 25.8331 22.4179H21.9414V24.7846Z" fill="#F2C56C"/>
<path d="M26.4747 29.643H21.3164C20.9747 29.643 20.6914 29.3597 20.6914 29.018V25.4097C20.6914 25.068 20.9747 24.7847 21.3164 24.7847H26.4747C27.9581 24.7847 29.1664 25.8763 29.1664 27.218C29.1664 28.5597 27.9581 29.643 26.4747 29.643ZM21.9414 28.393H26.4747C27.2664 28.393 27.9164 27.8597 27.9164 27.2097C27.9164 26.5597 27.2747 26.0263 26.4747 26.0263H21.9414V28.393Z" fill="#F2C56C"/>
<path d="M24.4746 31.4514C24.1329 31.4514 23.8496 31.1681 23.8496 30.8264V29.0181C23.8496 28.6764 24.1329 28.3931 24.4746 28.3931C24.8163 28.3931 25.0996 28.6764 25.0996 29.0181V30.8264C25.0996 31.1681 24.8246 31.4514 24.4746 31.4514Z" fill="#F2C56C"/>
<path d="M22.2246 31.4514C21.8829 31.4514 21.5996 31.1681 21.5996 30.8264V29.0181C21.5996 28.6764 21.8829 28.3931 22.2246 28.3931C22.5663 28.3931 22.8496 28.6764 22.8496 29.0181V30.8264C22.8496 31.1681 22.5663 31.4514 22.2246 31.4514Z" fill="#F2C56C"/>
<path d="M24.4746 22.4265C24.1329 22.4265 23.8496 22.1432 23.8496 21.8015V19.9932C23.8496 19.6515 24.1329 19.3682 24.4746 19.3682C24.8163 19.3682 25.0996 19.6515 25.0996 19.9932V21.8015C25.0996 22.1432 24.8246 22.4265 24.4746 22.4265Z" fill="#F2C56C"/>
<path d="M22.2246 22.4265C21.8829 22.4265 21.5996 22.1432 21.5996 21.8015V19.9932C21.5996 19.6515 21.8829 19.3682 22.2246 19.3682C22.5663 19.3682 22.8496 19.6515 22.8496 19.9932V21.8015C22.8496 22.1432 22.5663 22.4265 22.2246 22.4265Z" fill="#F2C56C"/>
<path d="M23.0333 22.4263H19.875C19.5333 22.4263 19.25 22.1429 19.25 21.8013C19.25 21.4596 19.5333 21.1763 19.875 21.1763H23.0333C23.375 21.1763 23.6583 21.4596 23.6583 21.8013C23.6583 22.1429 23.3833 22.4263 23.0333 22.4263Z" fill="#F2C56C"/>
<path d="M23.0333 29.6431H19.875C19.5333 29.6431 19.25 29.3597 19.25 29.0181C19.25 28.6764 19.5333 28.3931 19.875 28.3931H23.0333C23.375 28.3931 23.6583 28.6764 23.6583 29.0181C23.6583 29.3597 23.3833 29.6431 23.0333 29.6431Z" fill="#F2C56C"/>
<path d="M46.3125 20.9155H49.2861C50.5758 20.9155 51.5488 21.1024 52.2051 21.4761C52.8613 21.8498 53.1895 22.4946 53.1895 23.4106C53.1895 23.7935 53.1211 24.1398 52.9844 24.4497C52.8522 24.755 52.6585 25.008 52.4033 25.2085C52.1481 25.4045 51.8337 25.5366 51.46 25.605V25.6733C51.8473 25.7417 52.1914 25.8625 52.4922 26.0356C52.7975 26.2088 53.0368 26.4572 53.21 26.7808C53.3877 27.1043 53.4766 27.5236 53.4766 28.0386C53.4766 28.6493 53.3307 29.1688 53.0391 29.5972C52.752 30.0256 52.3395 30.3514 51.8018 30.5747C51.2686 30.798 50.6351 30.9097 49.9014 30.9097H46.3125V20.9155ZM47.9531 25.0376H49.5254C50.2682 25.0376 50.7832 24.9168 51.0703 24.6753C51.3574 24.4338 51.501 24.0806 51.501 23.6157C51.501 23.1418 51.3301 22.8 50.9883 22.5903C50.651 22.3807 50.1133 22.2759 49.375 22.2759H47.9531V25.0376ZM47.9531 26.3638V29.5356H49.6826C50.4482 29.5356 50.986 29.3875 51.2959 29.0913C51.6058 28.7951 51.7607 28.394 51.7607 27.8882C51.7607 27.5783 51.6901 27.3094 51.5488 27.0815C51.4121 26.8537 51.1865 26.6782 50.8721 26.5552C50.5576 26.4276 50.1338 26.3638 49.6006 26.3638H47.9531ZM59.0068 30.9097H57.3594V22.3101H54.4336V20.9155H61.9258V22.3101H59.0068V30.9097ZM67.7158 22.1665C67.2373 22.1665 66.8089 22.2531 66.4307 22.4263C66.057 22.5994 65.7402 22.8501 65.4805 23.1782C65.2207 23.5018 65.0225 23.896 64.8857 24.3608C64.749 24.8211 64.6807 25.3407 64.6807 25.9194C64.6807 26.6942 64.79 27.3618 65.0088 27.9224C65.2275 28.4784 65.5602 28.9067 66.0068 29.2075C66.4535 29.5037 67.0186 29.6519 67.7021 29.6519C68.126 29.6519 68.5384 29.6108 68.9395 29.5288C69.3405 29.4468 69.7552 29.3351 70.1836 29.1938V30.5884C69.778 30.7479 69.3678 30.8641 68.9531 30.937C68.5384 31.0099 68.0599 31.0464 67.5176 31.0464C66.4967 31.0464 65.6491 30.8345 64.9746 30.4106C64.3047 29.9868 63.8034 29.3898 63.4707 28.6196C63.1426 27.8494 62.9785 26.9471 62.9785 25.9126C62.9785 25.1561 63.0833 24.4634 63.293 23.8345C63.5026 23.2056 63.8079 22.6632 64.209 22.2075C64.61 21.7472 65.1045 21.394 65.6924 21.1479C66.2848 20.8973 66.9616 20.772 67.7227 20.772C68.224 20.772 68.7161 20.8289 69.1992 20.9429C69.6868 21.0522 70.138 21.2095 70.5527 21.4146L69.9785 22.7681C69.6322 22.604 69.2699 22.4627 68.8916 22.3442C68.5133 22.2257 68.1214 22.1665 67.7158 22.1665Z" fill="#07264D"/>
<path d="M204.336 25.6831C204.336 26.6102 204.266 27.4383 204.125 28.1675C203.984 28.8966 203.763 29.5138 203.461 30.019C203.159 30.5243 202.768 30.9097 202.289 31.1753C201.81 31.4357 201.234 31.5659 200.562 31.5659C199.714 31.5659 199.01 31.3341 198.453 30.8706C197.901 30.4071 197.487 29.7378 197.211 28.8628C196.94 27.9826 196.805 26.9227 196.805 25.6831C196.805 24.4644 196.927 23.4175 197.172 22.5425C197.422 21.6623 197.823 20.9878 198.375 20.519C198.927 20.0451 199.656 19.8081 200.562 19.8081C201.422 19.8081 202.13 20.0425 202.688 20.5112C203.245 20.9748 203.659 21.6466 203.93 22.5269C204.201 23.4019 204.336 24.4539 204.336 25.6831ZM198.109 25.6831C198.109 26.7456 198.19 27.631 198.352 28.3394C198.513 29.0477 198.773 29.5789 199.133 29.9331C199.497 30.2821 199.974 30.4565 200.562 30.4565C201.151 30.4565 201.625 30.2821 201.984 29.9331C202.349 29.5841 202.612 29.0555 202.773 28.3472C202.94 27.6388 203.023 26.7508 203.023 25.6831C203.023 24.6362 202.943 23.7612 202.781 23.0581C202.62 22.3498 202.359 21.8185 202 21.4644C201.641 21.105 201.161 20.9253 200.562 20.9253C199.964 20.9253 199.484 21.105 199.125 21.4644C198.766 21.8185 198.505 22.3498 198.344 23.0581C198.188 23.7612 198.109 24.6362 198.109 25.6831ZM206.328 30.5972C206.328 30.2326 206.417 29.9748 206.594 29.8237C206.771 29.6675 206.987 29.5894 207.242 29.5894C207.508 29.5894 207.732 29.6675 207.914 29.8237C208.096 29.9748 208.188 30.2326 208.188 30.5972C208.188 30.9565 208.096 31.2196 207.914 31.3862C207.732 31.5477 207.508 31.6284 207.242 31.6284C206.987 31.6284 206.771 31.5477 206.594 31.3862C206.417 31.2196 206.328 30.9565 206.328 30.5972ZM217.695 25.6831C217.695 26.6102 217.625 27.4383 217.484 28.1675C217.344 28.8966 217.122 29.5138 216.82 30.019C216.518 30.5243 216.128 30.9097 215.648 31.1753C215.169 31.4357 214.594 31.5659 213.922 31.5659C213.073 31.5659 212.37 31.3341 211.812 30.8706C211.26 30.4071 210.846 29.7378 210.57 28.8628C210.299 27.9826 210.164 26.9227 210.164 25.6831C210.164 24.4644 210.286 23.4175 210.531 22.5425C210.781 21.6623 211.182 20.9878 211.734 20.519C212.286 20.0451 213.016 19.8081 213.922 19.8081C214.781 19.8081 215.49 20.0425 216.047 20.5112C216.604 20.9748 217.018 21.6466 217.289 22.5269C217.56 23.4019 217.695 24.4539 217.695 25.6831ZM211.469 25.6831C211.469 26.7456 211.549 27.631 211.711 28.3394C211.872 29.0477 212.133 29.5789 212.492 29.9331C212.857 30.2821 213.333 30.4565 213.922 30.4565C214.51 30.4565 214.984 30.2821 215.344 29.9331C215.708 29.5841 215.971 29.0555 216.133 28.3472C216.299 27.6388 216.383 26.7508 216.383 25.6831C216.383 24.6362 216.302 23.7612 216.141 23.0581C215.979 22.3498 215.719 21.8185 215.359 21.4644C215 21.105 214.521 20.9253 213.922 20.9253C213.323 20.9253 212.844 21.105 212.484 21.4644C212.125 21.8185 211.865 22.3498 211.703 23.0581C211.547 23.7612 211.469 24.6362 211.469 25.6831ZM226.852 25.6831C226.852 26.6102 226.781 27.4383 226.641 28.1675C226.5 28.8966 226.279 29.5138 225.977 30.019C225.674 30.5243 225.284 30.9097 224.805 31.1753C224.326 31.4357 223.75 31.5659 223.078 31.5659C222.229 31.5659 221.526 31.3341 220.969 30.8706C220.417 30.4071 220.003 29.7378 219.727 28.8628C219.456 27.9826 219.32 26.9227 219.32 25.6831C219.32 24.4644 219.443 23.4175 219.688 22.5425C219.938 21.6623 220.339 20.9878 220.891 20.519C221.443 20.0451 222.172 19.8081 223.078 19.8081C223.938 19.8081 224.646 20.0425 225.203 20.5112C225.76 20.9748 226.174 21.6466 226.445 22.5269C226.716 23.4019 226.852 24.4539 226.852 25.6831ZM220.625 25.6831C220.625 26.7456 220.706 27.631 220.867 28.3394C221.029 29.0477 221.289 29.5789 221.648 29.9331C222.013 30.2821 222.49 30.4565 223.078 30.4565C223.667 30.4565 224.141 30.2821 224.5 29.9331C224.865 29.5841 225.128 29.0555 225.289 28.3472C225.456 27.6388 225.539 26.7508 225.539 25.6831C225.539 24.6362 225.458 23.7612 225.297 23.0581C225.135 22.3498 224.875 21.8185 224.516 21.4644C224.156 21.105 223.677 20.9253 223.078 20.9253C222.479 20.9253 222 21.105 221.641 21.4644C221.281 21.8185 221.021 22.3498 220.859 23.0581C220.703 23.7612 220.625 24.6362 220.625 25.6831ZM236.008 25.6831C236.008 26.6102 235.938 27.4383 235.797 28.1675C235.656 28.8966 235.435 29.5138 235.133 30.019C234.831 30.5243 234.44 30.9097 233.961 31.1753C233.482 31.4357 232.906 31.5659 232.234 31.5659C231.385 31.5659 230.682 31.3341 230.125 30.8706C229.573 30.4071 229.159 29.7378 228.883 28.8628C228.612 27.9826 228.477 26.9227 228.477 25.6831C228.477 24.4644 228.599 23.4175 228.844 22.5425C229.094 21.6623 229.495 20.9878 230.047 20.519C230.599 20.0451 231.328 19.8081 232.234 19.8081C233.094 19.8081 233.802 20.0425 234.359 20.5112C234.917 20.9748 235.331 21.6466 235.602 22.5269C235.872 23.4019 236.008 24.4539 236.008 25.6831ZM229.781 25.6831C229.781 26.7456 229.862 27.631 230.023 28.3394C230.185 29.0477 230.445 29.5789 230.805 29.9331C231.169 30.2821 231.646 30.4565 232.234 30.4565C232.823 30.4565 233.297 30.2821 233.656 29.9331C234.021 29.5841 234.284 29.0555 234.445 28.3472C234.612 27.6388 234.695 26.7508 234.695 25.6831C234.695 24.6362 234.615 23.7612 234.453 23.0581C234.292 22.3498 234.031 21.8185 233.672 21.4644C233.312 21.105 232.833 20.9253 232.234 20.9253C231.635 20.9253 231.156 21.105 230.797 21.4644C230.438 21.8185 230.177 22.3498 230.016 23.0581C229.859 23.7612 229.781 24.6362 229.781 25.6831ZM245.164 25.6831C245.164 26.6102 245.094 27.4383 244.953 28.1675C244.812 28.8966 244.591 29.5138 244.289 30.019C243.987 30.5243 243.596 30.9097 243.117 31.1753C242.638 31.4357 242.062 31.5659 241.391 31.5659C240.542 31.5659 239.839 31.3341 239.281 30.8706C238.729 30.4071 238.315 29.7378 238.039 28.8628C237.768 27.9826 237.633 26.9227 237.633 25.6831C237.633 24.4644 237.755 23.4175 238 22.5425C238.25 21.6623 238.651 20.9878 239.203 20.519C239.755 20.0451 240.484 19.8081 241.391 19.8081C242.25 19.8081 242.958 20.0425 243.516 20.5112C244.073 20.9748 244.487 21.6466 244.758 22.5269C245.029 23.4019 245.164 24.4539 245.164 25.6831ZM238.938 25.6831C238.938 26.7456 239.018 27.631 239.18 28.3394C239.341 29.0477 239.602 29.5789 239.961 29.9331C240.326 30.2821 240.802 30.4565 241.391 30.4565C241.979 30.4565 242.453 30.2821 242.812 29.9331C243.177 29.5841 243.44 29.0555 243.602 28.3472C243.768 27.6388 243.852 26.7508 243.852 25.6831C243.852 24.6362 243.771 23.7612 243.609 23.0581C243.448 22.3498 243.188 21.8185 242.828 21.4644C242.469 21.105 241.99 20.9253 241.391 20.9253C240.792 20.9253 240.312 21.105 239.953 21.4644C239.594 21.8185 239.333 22.3498 239.172 23.0581C239.016 23.7612 238.938 24.6362 238.938 25.6831ZM254.32 25.6831C254.32 26.6102 254.25 27.4383 254.109 28.1675C253.969 28.8966 253.747 29.5138 253.445 30.019C253.143 30.5243 252.753 30.9097 252.273 31.1753C251.794 31.4357 251.219 31.5659 250.547 31.5659C249.698 31.5659 248.995 31.3341 248.438 30.8706C247.885 30.4071 247.471 29.7378 247.195 28.8628C246.924 27.9826 246.789 26.9227 246.789 25.6831C246.789 24.4644 246.911 23.4175 247.156 22.5425C247.406 21.6623 247.807 20.9878 248.359 20.519C248.911 20.0451 249.641 19.8081 250.547 19.8081C251.406 19.8081 252.115 20.0425 252.672 20.5112C253.229 20.9748 253.643 21.6466 253.914 22.5269C254.185 23.4019 254.32 24.4539 254.32 25.6831ZM248.094 25.6831C248.094 26.7456 248.174 27.631 248.336 28.3394C248.497 29.0477 248.758 29.5789 249.117 29.9331C249.482 30.2821 249.958 30.4565 250.547 30.4565C251.135 30.4565 251.609 30.2821 251.969 29.9331C252.333 29.5841 252.596 29.0555 252.758 28.3472C252.924 27.6388 253.008 26.7508 253.008 25.6831C253.008 24.6362 252.927 23.7612 252.766 23.0581C252.604 22.3498 252.344 21.8185 251.984 21.4644C251.625 21.105 251.146 20.9253 250.547 20.9253C249.948 20.9253 249.469 21.105 249.109 21.4644C248.75 21.8185 248.49 22.3498 248.328 23.0581C248.172 23.7612 248.094 24.6362 248.094 25.6831ZM263.477 25.6831C263.477 26.6102 263.406 27.4383 263.266 28.1675C263.125 28.8966 262.904 29.5138 262.602 30.019C262.299 30.5243 261.909 30.9097 261.43 31.1753C260.951 31.4357 260.375 31.5659 259.703 31.5659C258.854 31.5659 258.151 31.3341 257.594 30.8706C257.042 30.4071 256.628 29.7378 256.352 28.8628C256.081 27.9826 255.945 26.9227 255.945 25.6831C255.945 24.4644 256.068 23.4175 256.312 22.5425C256.562 21.6623 256.964 20.9878 257.516 20.519C258.068 20.0451 258.797 19.8081 259.703 19.8081C260.562 19.8081 261.271 20.0425 261.828 20.5112C262.385 20.9748 262.799 21.6466 263.07 22.5269C263.341 23.4019 263.477 24.4539 263.477 25.6831ZM257.25 25.6831C257.25 26.7456 257.331 27.631 257.492 28.3394C257.654 29.0477 257.914 29.5789 258.273 29.9331C258.638 30.2821 259.115 30.4565 259.703 30.4565C260.292 30.4565 260.766 30.2821 261.125 29.9331C261.49 29.5841 261.753 29.0555 261.914 28.3472C262.081 27.6388 262.164 26.7508 262.164 25.6831C262.164 24.6362 262.083 23.7612 261.922 23.0581C261.76 22.3498 261.5 21.8185 261.141 21.4644C260.781 21.105 260.302 20.9253 259.703 20.9253C259.104 20.9253 258.625 21.105 258.266 21.4644C257.906 21.8185 257.646 22.3498 257.484 23.0581C257.328 23.7612 257.25 24.6362 257.25 25.6831ZM273.141 28.7612H271.43V31.4097H270.164V28.7612H264.641V27.6675L270.078 19.9253H271.43V27.5894H273.141V28.7612ZM270.164 27.5894V23.855C270.164 23.5685 270.167 23.3107 270.172 23.0815C270.177 22.8472 270.185 22.631 270.195 22.4331C270.206 22.23 270.214 22.0373 270.219 21.855C270.229 21.6727 270.237 21.493 270.242 21.3159H270.18C270.081 21.5243 269.966 21.7456 269.836 21.98C269.711 22.2091 269.583 22.4149 269.453 22.5972L265.93 27.5894H270.164ZM277.852 24.4253C278.628 24.4253 279.302 24.5581 279.875 24.8237C280.448 25.0841 280.891 25.4644 281.203 25.9644C281.521 26.4644 281.68 27.0711 281.68 27.7847C281.68 28.5659 281.51 29.2404 281.172 29.8081C280.833 30.3706 280.346 30.8055 279.711 31.1128C279.076 31.4149 278.315 31.5659 277.43 31.5659C276.836 31.5659 276.284 31.5138 275.773 31.4097C275.263 31.3055 274.833 31.1493 274.484 30.9409V29.7065C274.865 29.9357 275.326 30.118 275.867 30.2534C276.409 30.3888 276.935 30.4565 277.445 30.4565C278.023 30.4565 278.529 30.3654 278.961 30.1831C279.398 29.9956 279.737 29.7144 279.977 29.3394C280.221 28.9591 280.344 28.4826 280.344 27.9097C280.344 27.1493 280.109 26.5633 279.641 26.1519C279.177 25.7352 278.443 25.5269 277.438 25.5269C277.115 25.5269 276.76 25.5529 276.375 25.605C275.99 25.6571 275.672 25.7144 275.422 25.7769L274.766 25.3472L275.203 19.9878H280.883V21.1753H276.312L276.023 24.6206C276.221 24.5789 276.477 24.5373 276.789 24.4956C277.102 24.4487 277.456 24.4253 277.852 24.4253Z" fill="#39A798"/>
<path d="M329 25.4097C329 30.9297 324.52 35.4097 319 35.4097C313.48 35.4097 310.11 29.8497 310.11 29.8497M310.11 29.8497H314.63M310.11 29.8497V34.8497M309 25.4097C309 19.8897 313.44 15.4097 319 15.4097C325.67 15.4097 329 20.9697 329 20.9697M329 20.9697V15.9697M329 20.9697H324.56" stroke="#177DFF" stroke-width="1.5" stroke-linecap="round" stroke-linejoin="round"/>
</svg>
