<svg width="25" height="24" viewBox="0 0 25 24" fill="none" xmlns="http://www.w3.org/2000/svg">
<path d="M15.6666 15.5C15.6666 19.09 12.7566 22 9.16663 22C5.57663 22 2.66663 19.09 2.66663 15.5C2.66663 11.91 5.57663 9 9.16663 9C9.33663 9 9.51661 9.01 9.68661 9.02C12.8566 9.27 15.3966 11.81 15.6466 14.98C15.6566 15.15 15.6666 15.33 15.6666 15.5Z" fill="#177DFF"/>
<path opacity="0.4" d="M22.6666 8.5C22.6666 12.09 19.7566 15 16.1666 15C15.9966 15 15.8166 14.99 15.6466 14.98C15.3966 11.81 12.8566 9.27 9.68661 9.02C9.67661 8.85 9.66663 8.67 9.66663 8.5C9.66663 4.91 12.5766 2 16.1666 2C19.7566 2 22.6666 4.91 22.6666 8.5Z" fill="#177DFF"/>
<path d="M6.25662 2H3.66663C3.11663 2 2.66663 2.45 2.66663 3V5.59C2.66663 6.48 3.74662 6.93 4.37662 6.3L6.96661 3.71001C7.58661 3.08001 7.14662 2 6.25662 2Z" fill="#177DFF"/>
<path d="M19.0766 21.9998H21.6666C22.2166 21.9998 22.6666 21.5498 22.6666 20.9998V18.4098C22.6666 17.5198 21.5866 17.0698 20.9566 17.6998L18.3666 20.2898C17.7466 20.9198 18.1866 21.9998 19.0766 21.9998Z" fill="#177DFF"/>
</svg>
