<svg width="342" height="54" viewBox="0 0 342 54" fill="none" xmlns="http://www.w3.org/2000/svg">
<g clip-path="url(#clip0_103_21108)">
<rect width="342" height="54" rx="12" fill="#E8F2FF"/>
<g opacity="0.24">
<path fill-rule="evenodd" clip-rule="evenodd" d="M342.121 -33.8615C354.862 -45.7573 370.952 -56.9695 386.681 -49.6176C405.068 -41.0232 418.001 -20.5645 412.48 -0.975608C407.738 15.8461 385.51 13.8172 368.18 16.0247C351.261 18.1799 330.155 25.5925 322.279 10.5143C314.014 -5.30802 329.019 -21.6278 342.121 -33.8615Z" stroke="#177DFF"/>
<path fill-rule="evenodd" clip-rule="evenodd" d="M347.265 -37.0278C360.006 -48.9235 376.096 -60.1358 391.825 -52.7838C410.213 -44.1895 423.145 -23.7308 417.624 -4.14187C412.883 12.6798 390.654 10.6509 373.324 12.8585C356.405 15.0137 335.299 22.4262 327.423 7.34805C319.158 -8.47428 334.163 -24.7941 347.265 -37.0278Z" stroke="#177DFF"/>
<path fill-rule="evenodd" clip-rule="evenodd" d="M352.41 -39.4013C365.15 -51.2971 381.24 -62.5093 396.97 -55.1574C415.357 -46.563 428.289 -26.1043 422.768 -6.5154C418.027 10.3063 395.799 8.27739 378.468 10.485C361.549 12.6401 340.444 20.0527 332.567 4.97452C324.302 -10.8478 339.307 -27.1676 352.41 -39.4013Z" stroke="#177DFF"/>
<path fill-rule="evenodd" clip-rule="evenodd" d="M358.741 -42.9636C371.482 -54.8593 387.572 -66.0716 403.301 -58.7196C421.689 -50.1252 434.621 -29.6666 429.1 -10.0777C424.359 6.744 402.13 4.71513 384.8 6.92269C367.881 9.07788 346.775 16.4905 338.899 1.41226C330.634 -14.4101 345.639 -30.7299 358.741 -42.9636Z" stroke="#177DFF"/>
</g>
<g opacity="0.24">
<path fill-rule="evenodd" clip-rule="evenodd" d="M-76.879 27.1385C-64.1384 15.2427 -48.0483 4.03049 -32.3191 11.3824C-13.9316 19.9768 -0.999361 40.4355 -6.52046 60.0244C-11.2616 76.8461 -33.4899 74.8172 -50.8202 77.0247C-67.7394 79.1799 -88.845 86.5925 -96.7213 71.5143C-104.986 55.692 -89.9815 39.3722 -76.879 27.1385Z" stroke="#177DFF"/>
<path fill-rule="evenodd" clip-rule="evenodd" d="M-71.7347 23.9722C-58.9941 12.0765 -42.904 0.864232 -27.1748 8.21617C-8.78734 16.8105 4.14493 37.2692 -1.37618 56.8581C-6.11733 73.6798 -28.3456 71.6509 -45.6759 73.8585C-62.5951 76.0137 -83.7007 83.4262 -91.577 68.3481C-99.842 52.5257 -84.8372 36.2059 -71.7347 23.9722Z" stroke="#177DFF"/>
<path fill-rule="evenodd" clip-rule="evenodd" d="M-66.5904 21.5987C-53.8498 9.70292 -37.7598 -1.5093 -22.0305 5.84264C-3.64306 14.437 9.28921 34.8957 3.76811 54.4846C-0.973041 71.3063 -23.2013 69.2774 -40.5316 71.485C-57.4508 73.6401 -78.5564 81.0527 -86.4327 65.9745C-94.6978 50.1522 -79.6929 33.8324 -66.5904 21.5987Z" stroke="#177DFF"/>
<path fill-rule="evenodd" clip-rule="evenodd" d="M-60.2589 18.0364C-47.5183 6.14066 -31.4282 -5.07156 -15.6989 2.28038C2.68849 10.8748 15.6208 31.3334 10.0997 50.9223C5.3585 67.744 -16.8698 65.7151 -34.2001 67.9227C-51.1193 70.0779 -72.2249 77.4905 -80.1012 62.4123C-88.3662 46.5899 -73.3613 30.2701 -60.2589 18.0364Z" stroke="#177DFF"/>
</g>
<rect x="11" y="12.4097" width="26" height="26" rx="13" fill="#F2C56C" fill-opacity="0.2"/>
<path d="M25.8333 26.0346H21.3167C20.975 26.0346 20.6917 25.7513 20.6917 25.4096V21.8013C20.6917 21.4596 20.975 21.1763 21.3167 21.1763H25.8333C27.125 21.1763 28.2667 22.3096 28.2667 23.6096C28.2667 24.9429 27.175 26.0346 25.8333 26.0346ZM21.9417 24.7846H25.8333C26.4833 24.7846 27.0167 24.2513 27.0167 23.6013C27.0167 23.0513 26.5 22.4179 25.8333 22.4179H21.9417V24.7846Z" fill="#F2C56C"/>
<path d="M26.475 29.643H21.3167C20.975 29.643 20.6917 29.3597 20.6917 29.018V25.4097C20.6917 25.068 20.975 24.7847 21.3167 24.7847H26.475C27.9583 24.7847 29.1667 25.8763 29.1667 27.218C29.1667 28.5597 27.9583 29.643 26.475 29.643ZM21.9417 28.393H26.475C27.2667 28.393 27.9167 27.8597 27.9167 27.2097C27.9167 26.5597 27.275 26.0263 26.475 26.0263H21.9417V28.393Z" fill="#F2C56C"/>
<path d="M24.475 31.4514C24.1333 31.4514 23.85 31.1681 23.85 30.8264V29.0181C23.85 28.6764 24.1333 28.3931 24.475 28.3931C24.8166 28.3931 25.1 28.6764 25.1 29.0181V30.8264C25.1 31.1681 24.825 31.4514 24.475 31.4514Z" fill="#F2C56C"/>
<path d="M22.225 31.4514C21.8833 31.4514 21.6 31.1681 21.6 30.8264V29.0181C21.6 28.6764 21.8833 28.3931 22.225 28.3931C22.5666 28.3931 22.85 28.6764 22.85 29.0181V30.8264C22.85 31.1681 22.5666 31.4514 22.225 31.4514Z" fill="#F2C56C"/>
<path d="M24.475 22.4265C24.1333 22.4265 23.85 22.1432 23.85 21.8015V19.9932C23.85 19.6515 24.1333 19.3682 24.475 19.3682C24.8166 19.3682 25.1 19.6515 25.1 19.9932V21.8015C25.1 22.1432 24.825 22.4265 24.475 22.4265Z" fill="#F2C56C"/>
<path d="M22.225 22.4265C21.8833 22.4265 21.6 22.1432 21.6 21.8015V19.9932C21.6 19.6515 21.8833 19.3682 22.225 19.3682C22.5666 19.3682 22.85 19.6515 22.85 19.9932V21.8015C22.85 22.1432 22.5666 22.4265 22.225 22.4265Z" fill="#F2C56C"/>
<path d="M23.0333 22.4263H19.875C19.5333 22.4263 19.25 22.1429 19.25 21.8013C19.25 21.4596 19.5333 21.1763 19.875 21.1763H23.0333C23.375 21.1763 23.6583 21.4596 23.6583 21.8013C23.6583 22.1429 23.3833 22.4263 23.0333 22.4263Z" fill="#F2C56C"/>
<path d="M23.0333 29.6431H19.875C19.5333 29.6431 19.25 29.3597 19.25 29.0181C19.25 28.6764 19.5333 28.3931 19.875 28.3931H23.0333C23.375 28.3931 23.6583 28.6764 23.6583 29.0181C23.6583 29.3597 23.3833 29.6431 23.0333 29.6431Z" fill="#F2C56C"/>
<path d="M46.3125 20.9155H49.2861C50.5758 20.9155 51.5488 21.1024 52.2051 21.4761C52.8613 21.8498 53.1895 22.4946 53.1895 23.4106C53.1895 23.7935 53.1211 24.1398 52.9844 24.4497C52.8522 24.755 52.6585 25.008 52.4033 25.2085C52.1481 25.4045 51.8337 25.5366 51.46 25.605V25.6733C51.8473 25.7417 52.1914 25.8625 52.4922 26.0356C52.7975 26.2088 53.0368 26.4572 53.21 26.7808C53.3877 27.1043 53.4766 27.5236 53.4766 28.0386C53.4766 28.6493 53.3307 29.1688 53.0391 29.5972C52.752 30.0256 52.3395 30.3514 51.8018 30.5747C51.2686 30.798 50.6351 30.9097 49.9014 30.9097H46.3125V20.9155ZM47.9531 25.0376H49.5254C50.2682 25.0376 50.7832 24.9168 51.0703 24.6753C51.3574 24.4338 51.501 24.0806 51.501 23.6157C51.501 23.1418 51.3301 22.8 50.9883 22.5903C50.651 22.3807 50.1133 22.2759 49.375 22.2759H47.9531V25.0376ZM47.9531 26.3638V29.5356H49.6826C50.4482 29.5356 50.986 29.3875 51.2959 29.0913C51.6058 28.7951 51.7607 28.394 51.7607 27.8882C51.7607 27.5783 51.6901 27.3094 51.5488 27.0815C51.4121 26.8537 51.1865 26.6782 50.8721 26.5552C50.5576 26.4276 50.1338 26.3638 49.6006 26.3638H47.9531ZM59.0068 30.9097H57.3594V22.3101H54.4336V20.9155H61.9258V22.3101H59.0068V30.9097ZM67.7158 22.1665C67.2373 22.1665 66.8089 22.2531 66.4307 22.4263C66.057 22.5994 65.7402 22.8501 65.4805 23.1782C65.2207 23.5018 65.0225 23.896 64.8857 24.3608C64.749 24.8211 64.6807 25.3407 64.6807 25.9194C64.6807 26.6942 64.79 27.3618 65.0088 27.9224C65.2275 28.4784 65.5602 28.9067 66.0068 29.2075C66.4535 29.5037 67.0186 29.6519 67.7021 29.6519C68.126 29.6519 68.5384 29.6108 68.9395 29.5288C69.3405 29.4468 69.7552 29.3351 70.1836 29.1938V30.5884C69.778 30.7479 69.3678 30.8641 68.9531 30.937C68.5384 31.0099 68.0599 31.0464 67.5176 31.0464C66.4967 31.0464 65.6491 30.8345 64.9746 30.4106C64.3047 29.9868 63.8034 29.3898 63.4707 28.6196C63.1426 27.8494 62.9785 26.9471 62.9785 25.9126C62.9785 25.1561 63.0833 24.4634 63.293 23.8345C63.5026 23.2056 63.8079 22.6632 64.209 22.2075C64.61 21.7472 65.1045 21.394 65.6924 21.1479C66.2848 20.8973 66.9616 20.772 67.7227 20.772C68.224 20.772 68.7161 20.8289 69.1992 20.9429C69.6868 21.0522 70.138 21.2095 70.5527 21.4146L69.9785 22.7681C69.6322 22.604 69.2699 22.4627 68.8916 22.3442C68.5133 22.2257 68.1214 22.1665 67.7158 22.1665Z" fill="black"/>
<path d="M192.294 25.8989C192.294 26.7101 192.232 27.4347 192.109 28.0728C191.986 28.7108 191.793 29.2508 191.528 29.6929C191.264 30.1349 190.922 30.4722 190.503 30.7046C190.084 30.9325 189.58 31.0464 188.992 31.0464C188.249 31.0464 187.634 30.8436 187.146 30.438C186.663 30.0324 186.301 29.4468 186.06 28.6812C185.823 27.911 185.704 26.9836 185.704 25.8989C185.704 24.8325 185.811 23.9165 186.025 23.1509C186.244 22.3807 186.595 21.7905 187.078 21.3804C187.561 20.9657 188.199 20.7583 188.992 20.7583C189.744 20.7583 190.364 20.9634 190.852 21.3735C191.339 21.7791 191.701 22.367 191.938 23.1372C192.175 23.9028 192.294 24.8234 192.294 25.8989ZM186.846 25.8989C186.846 26.8286 186.916 27.6034 187.058 28.2231C187.199 28.8429 187.427 29.3078 187.741 29.6177C188.06 29.923 188.477 30.0757 188.992 30.0757C189.507 30.0757 189.922 29.923 190.236 29.6177C190.555 29.3123 190.785 28.8498 190.927 28.23C191.073 27.6102 191.146 26.8332 191.146 25.8989C191.146 24.9829 191.075 24.2173 190.934 23.6021C190.792 22.9823 190.564 22.5174 190.25 22.2075C189.936 21.8931 189.516 21.7358 188.992 21.7358C188.468 21.7358 188.049 21.8931 187.734 22.2075C187.42 22.5174 187.192 22.9823 187.051 23.6021C186.914 24.2173 186.846 24.9829 186.846 25.8989ZM194.037 30.1987C194.037 29.8797 194.115 29.6541 194.27 29.522C194.424 29.3853 194.614 29.3169 194.837 29.3169C195.069 29.3169 195.265 29.3853 195.425 29.522C195.584 29.6541 195.664 29.8797 195.664 30.1987C195.664 30.5132 195.584 30.7433 195.425 30.8892C195.265 31.0304 195.069 31.1011 194.837 31.1011C194.614 31.1011 194.424 31.0304 194.27 30.8892C194.115 30.7433 194.037 30.5132 194.037 30.1987ZM203.983 25.8989C203.983 26.7101 203.922 27.4347 203.799 28.0728C203.676 28.7108 203.482 29.2508 203.218 29.6929C202.953 30.1349 202.612 30.4722 202.192 30.7046C201.773 30.9325 201.27 31.0464 200.682 31.0464C199.939 31.0464 199.324 30.8436 198.836 30.438C198.353 30.0324 197.991 29.4468 197.749 28.6812C197.512 27.911 197.394 26.9836 197.394 25.8989C197.394 24.8325 197.501 23.9165 197.715 23.1509C197.934 22.3807 198.285 21.7905 198.768 21.3804C199.251 20.9657 199.889 20.7583 200.682 20.7583C201.434 20.7583 202.053 20.9634 202.541 21.3735C203.029 21.7791 203.391 22.367 203.628 23.1372C203.865 23.9028 203.983 24.8234 203.983 25.8989ZM198.535 25.8989C198.535 26.8286 198.606 27.6034 198.747 28.2231C198.888 28.8429 199.116 29.3078 199.431 29.6177C199.75 29.923 200.167 30.0757 200.682 30.0757C201.197 30.0757 201.611 29.923 201.926 29.6177C202.245 29.3123 202.475 28.8498 202.616 28.23C202.762 27.6102 202.835 26.8332 202.835 25.8989C202.835 24.9829 202.764 24.2173 202.623 23.6021C202.482 22.9823 202.254 22.5174 201.939 22.2075C201.625 21.8931 201.206 21.7358 200.682 21.7358C200.158 21.7358 199.738 21.8931 199.424 22.2075C199.109 22.5174 198.882 22.9823 198.74 23.6021C198.604 24.2173 198.535 24.9829 198.535 25.8989ZM211.995 25.8989C211.995 26.7101 211.934 27.4347 211.811 28.0728C211.688 28.7108 211.494 29.2508 211.229 29.6929C210.965 30.1349 210.623 30.4722 210.204 30.7046C209.785 30.9325 209.281 31.0464 208.693 31.0464C207.951 31.0464 207.335 30.8436 206.848 30.438C206.365 30.0324 206.002 29.4468 205.761 28.6812C205.524 27.911 205.405 26.9836 205.405 25.8989C205.405 24.8325 205.512 23.9165 205.727 23.1509C205.945 22.3807 206.296 21.7905 206.779 21.3804C207.262 20.9657 207.9 20.7583 208.693 20.7583C209.445 20.7583 210.065 20.9634 210.553 21.3735C211.04 21.7791 211.403 22.367 211.64 23.1372C211.877 23.9028 211.995 24.8234 211.995 25.8989ZM206.547 25.8989C206.547 26.8286 206.618 27.6034 206.759 28.2231C206.9 28.8429 207.128 29.3078 207.442 29.6177C207.761 29.923 208.178 30.0757 208.693 30.0757C209.208 30.0757 209.623 29.923 209.938 29.6177C210.257 29.3123 210.487 28.8498 210.628 28.23C210.774 27.6102 210.847 26.8332 210.847 25.8989C210.847 24.9829 210.776 24.2173 210.635 23.6021C210.493 22.9823 210.266 22.5174 209.951 22.2075C209.637 21.8931 209.217 21.7358 208.693 21.7358C208.169 21.7358 207.75 21.8931 207.436 22.2075C207.121 22.5174 206.893 22.9823 206.752 23.6021C206.615 24.2173 206.547 24.9829 206.547 25.8989ZM220.007 25.8989C220.007 26.7101 219.945 27.4347 219.822 28.0728C219.699 28.7108 219.506 29.2508 219.241 29.6929C218.977 30.1349 218.635 30.4722 218.216 30.7046C217.797 30.9325 217.293 31.0464 216.705 31.0464C215.962 31.0464 215.347 30.8436 214.859 30.438C214.376 30.0324 214.014 29.4468 213.772 28.6812C213.535 27.911 213.417 26.9836 213.417 25.8989C213.417 24.8325 213.524 23.9165 213.738 23.1509C213.957 22.3807 214.308 21.7905 214.791 21.3804C215.274 20.9657 215.912 20.7583 216.705 20.7583C217.457 20.7583 218.077 20.9634 218.564 21.3735C219.052 21.7791 219.414 22.367 219.651 23.1372C219.888 23.9028 220.007 24.8234 220.007 25.8989ZM214.559 25.8989C214.559 26.8286 214.629 27.6034 214.771 28.2231C214.912 28.8429 215.14 29.3078 215.454 29.6177C215.773 29.923 216.19 30.0757 216.705 30.0757C217.22 30.0757 217.635 29.923 217.949 29.6177C218.268 29.3123 218.498 28.8498 218.64 28.23C218.785 27.6102 218.858 26.8332 218.858 25.8989C218.858 24.9829 218.788 24.2173 218.646 23.6021C218.505 22.9823 218.277 22.5174 217.963 22.2075C217.648 21.8931 217.229 21.7358 216.705 21.7358C216.181 21.7358 215.762 21.8931 215.447 22.2075C215.133 22.5174 214.905 22.9823 214.764 23.6021C214.627 24.2173 214.559 24.9829 214.559 25.8989ZM228.019 25.8989C228.019 26.7101 227.957 27.4347 227.834 28.0728C227.711 28.7108 227.517 29.2508 227.253 29.6929C226.989 30.1349 226.647 30.4722 226.228 30.7046C225.808 30.9325 225.305 31.0464 224.717 31.0464C223.974 31.0464 223.359 30.8436 222.871 30.438C222.388 30.0324 222.026 29.4468 221.784 28.6812C221.547 27.911 221.429 26.9836 221.429 25.8989C221.429 24.8325 221.536 23.9165 221.75 23.1509C221.969 22.3807 222.32 21.7905 222.803 21.3804C223.286 20.9657 223.924 20.7583 224.717 20.7583C225.469 20.7583 226.089 20.9634 226.576 21.3735C227.064 21.7791 227.426 22.367 227.663 23.1372C227.9 23.9028 228.019 24.8234 228.019 25.8989ZM222.57 25.8989C222.57 26.8286 222.641 27.6034 222.782 28.2231C222.924 28.8429 223.151 29.3078 223.466 29.6177C223.785 29.923 224.202 30.0757 224.717 30.0757C225.232 30.0757 225.646 29.923 225.961 29.6177C226.28 29.3123 226.51 28.8498 226.651 28.23C226.797 27.6102 226.87 26.8332 226.87 25.8989C226.87 24.9829 226.799 24.2173 226.658 23.6021C226.517 22.9823 226.289 22.5174 225.975 22.2075C225.66 21.8931 225.241 21.7358 224.717 21.7358C224.193 21.7358 223.773 21.8931 223.459 22.2075C223.145 22.5174 222.917 22.9823 222.775 23.6021C222.639 24.2173 222.57 24.9829 222.57 25.8989ZM236.03 25.8989C236.03 26.7101 235.969 27.4347 235.846 28.0728C235.723 28.7108 235.529 29.2508 235.265 29.6929C235 30.1349 234.659 30.4722 234.239 30.7046C233.82 30.9325 233.316 31.0464 232.729 31.0464C231.986 31.0464 231.37 30.8436 230.883 30.438C230.4 30.0324 230.037 29.4468 229.796 28.6812C229.559 27.911 229.44 26.9836 229.44 25.8989C229.44 24.8325 229.548 23.9165 229.762 23.1509C229.98 22.3807 230.331 21.7905 230.814 21.3804C231.298 20.9657 231.936 20.7583 232.729 20.7583C233.48 20.7583 234.1 20.9634 234.588 21.3735C235.076 21.7791 235.438 22.367 235.675 23.1372C235.912 23.9028 236.03 24.8234 236.03 25.8989ZM230.582 25.8989C230.582 26.8286 230.653 27.6034 230.794 28.2231C230.935 28.8429 231.163 29.3078 231.478 29.6177C231.797 29.923 232.214 30.0757 232.729 30.0757C233.243 30.0757 233.658 29.923 233.973 29.6177C234.292 29.3123 234.522 28.8498 234.663 28.23C234.809 27.6102 234.882 26.8332 234.882 25.8989C234.882 24.9829 234.811 24.2173 234.67 23.6021C234.529 22.9823 234.301 22.5174 233.986 22.2075C233.672 21.8931 233.253 21.7358 232.729 21.7358C232.204 21.7358 231.785 21.8931 231.471 22.2075C231.156 22.5174 230.928 22.9823 230.787 23.6021C230.65 24.2173 230.582 24.9829 230.582 25.8989ZM244.042 25.8989C244.042 26.7101 243.98 27.4347 243.857 28.0728C243.734 28.7108 243.541 29.2508 243.276 29.6929C243.012 30.1349 242.67 30.4722 242.251 30.7046C241.832 30.9325 241.328 31.0464 240.74 31.0464C239.997 31.0464 239.382 30.8436 238.895 30.438C238.411 30.0324 238.049 29.4468 237.808 28.6812C237.571 27.911 237.452 26.9836 237.452 25.8989C237.452 24.8325 237.559 23.9165 237.773 23.1509C237.992 22.3807 238.343 21.7905 238.826 21.3804C239.309 20.9657 239.947 20.7583 240.74 20.7583C241.492 20.7583 242.112 20.9634 242.6 21.3735C243.087 21.7791 243.45 22.367 243.687 23.1372C243.924 23.9028 244.042 24.8234 244.042 25.8989ZM238.594 25.8989C238.594 26.8286 238.664 27.6034 238.806 28.2231C238.947 28.8429 239.175 29.3078 239.489 29.6177C239.808 29.923 240.225 30.0757 240.74 30.0757C241.255 30.0757 241.67 29.923 241.984 29.6177C242.303 29.3123 242.534 28.8498 242.675 28.23C242.821 27.6102 242.894 26.8332 242.894 25.8989C242.894 24.9829 242.823 24.2173 242.682 23.6021C242.54 22.9823 242.312 22.5174 241.998 22.2075C241.684 21.8931 241.264 21.7358 240.74 21.7358C240.216 21.7358 239.797 21.8931 239.482 22.2075C239.168 22.5174 238.94 22.9823 238.799 23.6021C238.662 24.2173 238.594 24.9829 238.594 25.8989ZM252.498 28.5923H251.001V30.9097H249.894V28.5923H245.061V27.6353L249.818 20.8608H251.001V27.5669H252.498V28.5923ZM249.894 27.5669V24.2993C249.894 24.0487 249.896 23.8231 249.9 23.6226C249.905 23.4175 249.912 23.2284 249.921 23.0552C249.93 22.8774 249.937 22.7088 249.941 22.5493C249.951 22.3898 249.957 22.2326 249.962 22.0776H249.907C249.821 22.2599 249.72 22.4536 249.606 22.6587C249.497 22.8592 249.385 23.0392 249.271 23.1987L246.188 27.5669H249.894ZM256.62 24.7983C257.299 24.7983 257.889 24.9146 258.391 25.147C258.892 25.3748 259.279 25.7075 259.553 26.145C259.831 26.5825 259.97 27.1134 259.97 27.7378C259.97 28.4214 259.822 29.0116 259.525 29.5083C259.229 30.0005 258.803 30.381 258.247 30.6499C257.691 30.9142 257.026 31.0464 256.251 31.0464C255.731 31.0464 255.248 31.0008 254.802 30.9097C254.355 30.8185 253.979 30.6818 253.674 30.4995V29.4194C254.007 29.62 254.41 29.7795 254.884 29.8979C255.358 30.0164 255.818 30.0757 256.265 30.0757C256.771 30.0757 257.213 29.9959 257.591 29.8364C257.974 29.6724 258.27 29.4263 258.479 29.0981C258.694 28.7655 258.801 28.3485 258.801 27.8472C258.801 27.1818 258.596 26.6691 258.186 26.3091C257.78 25.9445 257.137 25.7622 256.258 25.7622C255.975 25.7622 255.665 25.785 255.328 25.8306C254.991 25.8761 254.713 25.9263 254.494 25.981L253.92 25.605L254.303 20.9155H259.272V21.9546H255.273L255.021 24.9692C255.194 24.9328 255.417 24.8963 255.69 24.8599C255.964 24.8188 256.274 24.7983 256.62 24.7983Z" fill="#39A798"/>
<path d="M268.589 29.4115L267.181 31.3147C266.692 31.9747 267.163 32.9097 267.984 32.9097H288C288.552 32.9097 289 32.462 289 31.9097V20.0368C289 19.3802 288.155 19.1133 287.778 19.6508C287.652 19.83 287.447 19.9367 287.228 19.9367H287.153C286.776 19.9367 286.448 20.195 286.36 20.5616L285.237 25.2253C285.061 25.9552 284.173 26.2383 283.607 25.745L283.559 25.7031C283.155 25.3504 282.544 25.38 282.175 25.7701L281.302 26.6943C281.218 26.7831 281.151 26.8865 281.105 26.9994L280.684 28.0182C280.49 28.4889 279.848 28.5502 279.568 28.1248L279.536 28.076C279.339 27.7759 278.92 27.7233 278.654 27.9654C278.338 28.2539 277.829 28.1155 277.702 27.7065L277.263 26.288L276.968 25.5596C276.79 25.1213 276.195 25.0589 275.931 25.4509L275.653 25.8625C275.525 26.0528 275.239 26.0344 275.136 25.8291C275.03 25.6177 274.733 25.6061 274.61 25.8086L273.893 26.9986C273.725 27.2761 273.362 27.3617 273.089 27.1883C272.79 26.9991 272.393 27.1204 272.25 27.4444L271.616 28.8913C271.353 29.4894 270.597 29.6796 270.083 29.2767L270.01 29.2193C269.567 28.872 268.924 28.9589 268.589 29.4115Z" fill="url(#paint0_linear_103_21108)" fill-opacity="0.5"/>
<path d="M266 32.9097L268.589 29.4115C268.924 28.9589 269.567 28.872 270.01 29.2193L270.083 29.2767C270.597 29.6796 271.353 29.4894 271.616 28.8913L272.25 27.4444C272.393 27.1204 272.79 26.9991 273.089 27.1883V27.1883C273.362 27.3617 273.725 27.2761 273.893 26.9986L274.61 25.8086C274.733 25.6061 275.03 25.6177 275.136 25.8291V25.8291C275.239 26.0344 275.525 26.0528 275.653 25.8625L275.931 25.4509C276.195 25.0589 276.79 25.1213 276.968 25.5596L277.263 26.288L277.702 27.7065C277.829 28.1155 278.338 28.2539 278.654 27.9654V27.9654C278.92 27.7233 279.339 27.7759 279.536 28.076L279.568 28.1248C279.848 28.5502 280.49 28.4889 280.684 28.0182L281.105 26.9994C281.151 26.8865 281.218 26.7831 281.302 26.6943L282.175 25.7701C282.544 25.38 283.155 25.3504 283.559 25.7031L283.607 25.745C284.173 26.2383 285.061 25.9552 285.237 25.2253L286.36 20.5616C286.448 20.195 286.776 19.9367 287.153 19.9367V19.9367C287.419 19.9367 287.668 19.8071 287.821 19.5895L289 17.9097" stroke="#089775"/>
<path d="M305.87 23.2466C305.87 23.6932 305.784 24.0806 305.61 24.4087C305.437 24.7368 305.196 25.0057 304.886 25.2153C304.576 25.4204 304.211 25.564 303.792 25.646V25.7007C304.585 25.8009 305.18 26.0562 305.576 26.4663C305.977 26.8765 306.178 27.4142 306.178 28.0796C306.178 28.6584 306.041 29.1711 305.768 29.6177C305.499 30.0643 305.084 30.4152 304.523 30.6704C303.967 30.9211 303.254 31.0464 302.384 31.0464C301.855 31.0464 301.365 31.0031 300.914 30.9165C300.467 30.8345 300.039 30.6955 299.629 30.4995V29.4331C300.044 29.6382 300.495 29.8 300.982 29.9185C301.47 30.0324 301.942 30.0894 302.397 30.0894C303.309 30.0894 303.967 29.9093 304.373 29.5493C304.779 29.1847 304.981 28.688 304.981 28.0591C304.981 27.6261 304.868 27.2775 304.64 27.0132C304.416 26.7443 304.093 26.5483 303.669 26.4253C303.25 26.2977 302.744 26.2339 302.151 26.2339H301.153V25.2632H302.158C302.701 25.2632 303.161 25.1834 303.539 25.0239C303.917 24.8644 304.204 24.6411 304.4 24.354C304.601 24.0623 304.701 23.7183 304.701 23.3218C304.701 22.8159 304.533 22.4263 304.195 22.1528C303.858 21.8748 303.4 21.7358 302.821 21.7358C302.466 21.7358 302.142 21.7723 301.851 21.8452C301.559 21.9181 301.285 22.0184 301.03 22.146C300.775 22.2736 300.52 22.4217 300.265 22.5903L299.69 21.811C300.055 21.5285 300.499 21.2847 301.023 21.0796C301.548 20.8745 302.142 20.772 302.808 20.772C303.828 20.772 304.594 21.0044 305.104 21.4692C305.615 21.9341 305.87 22.5265 305.87 23.2466ZM308.037 30.1987C308.037 29.8797 308.115 29.6541 308.27 29.522C308.424 29.3853 308.614 29.3169 308.837 29.3169C309.069 29.3169 309.265 29.3853 309.425 29.522C309.584 29.6541 309.664 29.8797 309.664 30.1987C309.664 30.5132 309.584 30.7433 309.425 30.8892C309.265 31.0304 309.069 31.1011 308.837 31.1011C308.614 31.1011 308.424 31.0304 308.27 30.8892C308.115 30.7433 308.037 30.5132 308.037 30.1987ZM314.682 20.772C315.26 20.772 315.773 20.8631 316.22 21.0454C316.666 21.2277 317.015 21.4966 317.266 21.8521C317.521 22.203 317.648 22.6359 317.648 23.1509C317.648 23.5565 317.56 23.9119 317.382 24.2173C317.209 24.5181 316.974 24.7824 316.678 25.0103C316.382 25.2336 316.053 25.4341 315.693 25.6118C316.122 25.8078 316.507 26.0288 316.849 26.2749C317.195 26.521 317.468 26.8104 317.669 27.1431C317.869 27.4757 317.97 27.87 317.97 28.3257C317.97 28.8862 317.833 29.3716 317.56 29.7817C317.291 30.1873 316.912 30.4995 316.425 30.7183C315.937 30.937 315.365 31.0464 314.709 31.0464C314.003 31.0464 313.401 30.9416 312.904 30.7319C312.412 30.5177 312.036 30.2124 311.776 29.8159C311.521 29.4149 311.394 28.9341 311.394 28.3735C311.394 27.9132 311.492 27.5145 311.688 27.1772C311.883 26.8354 312.143 26.5415 312.467 26.2954C312.79 26.0493 313.144 25.842 313.526 25.6733C313.194 25.491 312.888 25.2837 312.61 25.0513C312.337 24.8188 312.118 24.5477 311.954 24.2378C311.795 23.9233 311.715 23.5588 311.715 23.144C311.715 22.6382 311.842 22.2098 312.098 21.8589C312.357 21.5034 312.711 21.2345 313.157 21.0522C313.608 20.8654 314.117 20.772 314.682 20.772ZM312.508 28.3804C312.508 28.8908 312.688 29.3123 313.048 29.645C313.408 29.9731 313.952 30.1372 314.682 30.1372C315.374 30.1372 315.91 29.9731 316.288 29.645C316.666 29.3123 316.855 28.8771 316.855 28.3394C316.855 28.0067 316.769 27.715 316.596 27.4644C316.423 27.2091 316.176 26.9813 315.857 26.7808C315.538 26.5802 315.162 26.3979 314.729 26.2339L314.483 26.145C314.064 26.3182 313.706 26.5119 313.41 26.7261C313.118 26.9357 312.895 27.175 312.74 27.4438C312.585 27.7127 312.508 28.0249 312.508 28.3804ZM314.668 21.7017C314.13 21.7017 313.69 21.8315 313.349 22.0913C313.007 22.3465 312.836 22.7157 312.836 23.1987C312.836 23.5451 312.918 23.839 313.082 24.0806C313.251 24.3175 313.479 24.5226 313.766 24.6958C314.053 24.8644 314.374 25.0216 314.729 25.1675C315.076 25.0216 315.383 24.8621 315.652 24.689C315.921 24.5112 316.133 24.3016 316.288 24.0601C316.443 23.8185 316.521 23.5291 316.521 23.1919C316.521 22.7088 316.35 22.3397 316.008 22.0845C315.671 21.8293 315.224 21.7017 314.668 21.7017ZM321.429 20.772C322.112 20.772 322.63 21.0454 322.98 21.5923C323.336 22.1346 323.514 22.9025 323.514 23.896C323.514 24.8895 323.343 25.6642 323.001 26.2202C322.659 26.7716 322.135 27.0474 321.429 27.0474C320.772 27.0474 320.269 26.7716 319.918 26.2202C319.572 25.6642 319.398 24.8895 319.398 23.896C319.398 22.9025 319.565 22.1346 319.897 21.5923C320.23 21.0454 320.741 20.772 321.429 20.772ZM321.429 21.5854C321.06 21.5854 320.788 21.7791 320.615 22.1665C320.442 22.5493 320.355 23.1258 320.355 23.896C320.355 24.6662 320.442 25.2472 320.615 25.6392C320.788 26.0311 321.06 26.2271 321.429 26.2271C321.812 26.2271 322.096 26.0311 322.283 25.6392C322.47 25.2472 322.563 24.6662 322.563 23.896C322.563 23.1304 322.47 22.5539 322.283 22.1665C322.101 21.7791 321.816 21.5854 321.429 21.5854ZM327.759 20.9155L322.215 30.9097H321.217L326.761 20.9155H327.759ZM327.492 24.7778C328.171 24.7778 328.688 25.0513 329.044 25.5981C329.399 26.1405 329.577 26.9084 329.577 27.9019C329.577 28.8908 329.406 29.6632 329.064 30.2192C328.723 30.7707 328.199 31.0464 327.492 31.0464C326.831 31.0464 326.328 30.7707 325.981 30.2192C325.635 29.6632 325.462 28.8908 325.462 27.9019C325.462 26.9084 325.626 26.1405 325.954 25.5981C326.287 25.0513 326.799 24.7778 327.492 24.7778ZM327.492 25.5981C327.123 25.5981 326.852 25.7896 326.679 26.1724C326.506 26.5552 326.419 27.1317 326.419 27.9019C326.419 28.672 326.506 29.2531 326.679 29.645C326.852 30.0324 327.123 30.2261 327.492 30.2261C327.875 30.2261 328.16 30.0347 328.347 29.6519C328.534 29.2645 328.627 28.6812 328.627 27.9019C328.627 27.1362 328.534 26.562 328.347 26.1792C328.164 25.7918 327.88 25.5981 327.492 25.5981Z" fill="#39A798"/>
</g>
<defs>
<linearGradient id="paint0_linear_103_21108" x1="277.5" y1="-24.9475" x2="277.5" y2="32.9097" gradientUnits="userSpaceOnUse">
<stop stop-color="#089775"/>
<stop offset="1" stop-color="#089775" stop-opacity="0"/>
</linearGradient>
<clipPath id="clip0_103_21108">
<rect width="342" height="54" rx="12" fill="white"/>
</clipPath>
</defs>
</svg>
